G04 #@! TF.GenerationSoftware,KiCad,Pcbnew,(5.0.2)-1*
G04 #@! TF.CreationDate,2019-02-28T20:38:06-05:00*
G04 #@! TF.ProjectId,CEC01,43454330-312e-46b6-9963-61645f706362,v0.1*
G04 #@! TF.SameCoordinates,Original*
G04 #@! TF.FileFunction,Copper,L1,Top*
G04 #@! TF.FilePolarity,Positive*
%FSLAX46Y46*%
G04 Gerber Fmt 4.6, Leading zero omitted, Abs format (unit mm)*
G04 Created by KiCad (PCBNEW (5.0.2)-1) date 2/28/2019 8:38:06 PM*
%MOMM*%
%LPD*%
G01*
G04 APERTURE LIST*
G04 #@! TA.AperFunction,Conductor*
%ADD10C,0.100000*%
G04 #@! TD*
G04 #@! TA.AperFunction,SMDPad,CuDef*
%ADD11C,0.875000*%
G04 #@! TD*
G04 #@! TA.AperFunction,ComponentPad*
%ADD12R,1.800000X1.070000*%
G04 #@! TD*
G04 #@! TA.AperFunction,ComponentPad*
%ADD13O,1.800000X1.070000*%
G04 #@! TD*
G04 #@! TA.AperFunction,SMDPad,CuDef*
%ADD14R,1.400000X0.400000*%
G04 #@! TD*
G04 #@! TA.AperFunction,SMDPad,CuDef*
%ADD15R,1.900000X2.300000*%
G04 #@! TD*
G04 #@! TA.AperFunction,SMDPad,CuDef*
%ADD16R,1.900000X1.800000*%
G04 #@! TD*
G04 #@! TA.AperFunction,ComponentPad*
%ADD17R,1.700000X1.700000*%
G04 #@! TD*
G04 #@! TA.AperFunction,ComponentPad*
%ADD18O,1.700000X1.700000*%
G04 #@! TD*
G04 #@! TA.AperFunction,ConnectorPad*
%ADD19C,0.787400*%
G04 #@! TD*
G04 #@! TA.AperFunction,SMDPad,CuDef*
%ADD20R,1.000000X0.250000*%
G04 #@! TD*
G04 #@! TA.AperFunction,SMDPad,CuDef*
%ADD21R,0.250000X1.000000*%
G04 #@! TD*
G04 #@! TA.AperFunction,SMDPad,CuDef*
%ADD22R,0.550000X1.750000*%
G04 #@! TD*
G04 #@! TA.AperFunction,ViaPad*
%ADD23C,0.800000*%
G04 #@! TD*
G04 #@! TA.AperFunction,Conductor*
%ADD24C,0.250000*%
G04 #@! TD*
G04 APERTURE END LIST*
D10*
G04 #@! TO.N,Net-(C1-Pad1)*
G04 #@! TO.C,C1*
G36*
X122197691Y-69896053D02*
X122218926Y-69899203D01*
X122239750Y-69904419D01*
X122259962Y-69911651D01*
X122279368Y-69920830D01*
X122297781Y-69931866D01*
X122315024Y-69944654D01*
X122330930Y-69959070D01*
X122345346Y-69974976D01*
X122358134Y-69992219D01*
X122369170Y-70010632D01*
X122378349Y-70030038D01*
X122385581Y-70050250D01*
X122390797Y-70071074D01*
X122393947Y-70092309D01*
X122395000Y-70113750D01*
X122395000Y-70551250D01*
X122393947Y-70572691D01*
X122390797Y-70593926D01*
X122385581Y-70614750D01*
X122378349Y-70634962D01*
X122369170Y-70654368D01*
X122358134Y-70672781D01*
X122345346Y-70690024D01*
X122330930Y-70705930D01*
X122315024Y-70720346D01*
X122297781Y-70733134D01*
X122279368Y-70744170D01*
X122259962Y-70753349D01*
X122239750Y-70760581D01*
X122218926Y-70765797D01*
X122197691Y-70768947D01*
X122176250Y-70770000D01*
X121663750Y-70770000D01*
X121642309Y-70768947D01*
X121621074Y-70765797D01*
X121600250Y-70760581D01*
X121580038Y-70753349D01*
X121560632Y-70744170D01*
X121542219Y-70733134D01*
X121524976Y-70720346D01*
X121509070Y-70705930D01*
X121494654Y-70690024D01*
X121481866Y-70672781D01*
X121470830Y-70654368D01*
X121461651Y-70634962D01*
X121454419Y-70614750D01*
X121449203Y-70593926D01*
X121446053Y-70572691D01*
X121445000Y-70551250D01*
X121445000Y-70113750D01*
X121446053Y-70092309D01*
X121449203Y-70071074D01*
X121454419Y-70050250D01*
X121461651Y-70030038D01*
X121470830Y-70010632D01*
X121481866Y-69992219D01*
X121494654Y-69974976D01*
X121509070Y-69959070D01*
X121524976Y-69944654D01*
X121542219Y-69931866D01*
X121560632Y-69920830D01*
X121580038Y-69911651D01*
X121600250Y-69904419D01*
X121621074Y-69899203D01*
X121642309Y-69896053D01*
X121663750Y-69895000D01*
X122176250Y-69895000D01*
X122197691Y-69896053D01*
X122197691Y-69896053D01*
G37*
D11*
G04 #@! TD*
G04 #@! TO.P,C1,1*
G04 #@! TO.N,Net-(C1-Pad1)*
X121920000Y-70332500D03*
D10*
G04 #@! TO.N,Net-(C1-Pad1)*
G04 #@! TO.C,C1*
G36*
X122197691Y-71471053D02*
X122218926Y-71474203D01*
X122239750Y-71479419D01*
X122259962Y-71486651D01*
X122279368Y-71495830D01*
X122297781Y-71506866D01*
X122315024Y-71519654D01*
X122330930Y-71534070D01*
X122345346Y-71549976D01*
X122358134Y-71567219D01*
X122369170Y-71585632D01*
X122378349Y-71605038D01*
X122385581Y-71625250D01*
X122390797Y-71646074D01*
X122393947Y-71667309D01*
X122395000Y-71688750D01*
X122395000Y-72126250D01*
X122393947Y-72147691D01*
X122390797Y-72168926D01*
X122385581Y-72189750D01*
X122378349Y-72209962D01*
X122369170Y-72229368D01*
X122358134Y-72247781D01*
X122345346Y-72265024D01*
X122330930Y-72280930D01*
X122315024Y-72295346D01*
X122297781Y-72308134D01*
X122279368Y-72319170D01*
X122259962Y-72328349D01*
X122239750Y-72335581D01*
X122218926Y-72340797D01*
X122197691Y-72343947D01*
X122176250Y-72345000D01*
X121663750Y-72345000D01*
X121642309Y-72343947D01*
X121621074Y-72340797D01*
X121600250Y-72335581D01*
X121580038Y-72328349D01*
X121560632Y-72319170D01*
X121542219Y-72308134D01*
X121524976Y-72295346D01*
X121509070Y-72280930D01*
X121494654Y-72265024D01*
X121481866Y-72247781D01*
X121470830Y-72229368D01*
X121461651Y-72209962D01*
X121454419Y-72189750D01*
X121449203Y-72168926D01*
X121446053Y-72147691D01*
X121445000Y-72126250D01*
X121445000Y-71688750D01*
X121446053Y-71667309D01*
X121449203Y-71646074D01*
X121454419Y-71625250D01*
X121461651Y-71605038D01*
X121470830Y-71585632D01*
X121481866Y-71567219D01*
X121494654Y-71549976D01*
X121509070Y-71534070D01*
X121524976Y-71519654D01*
X121542219Y-71506866D01*
X121560632Y-71495830D01*
X121580038Y-71486651D01*
X121600250Y-71479419D01*
X121621074Y-71474203D01*
X121642309Y-71471053D01*
X121663750Y-71470000D01*
X122176250Y-71470000D01*
X122197691Y-71471053D01*
X122197691Y-71471053D01*
G37*
D11*
G04 #@! TD*
G04 #@! TO.P,C1,2*
G04 #@! TO.N,Net-(C1-Pad1)*
X121920000Y-71907500D03*
D10*
G04 #@! TO.N,GND*
G04 #@! TO.C,C2*
G36*
X128547691Y-81631053D02*
X128568926Y-81634203D01*
X128589750Y-81639419D01*
X128609962Y-81646651D01*
X128629368Y-81655830D01*
X128647781Y-81666866D01*
X128665024Y-81679654D01*
X128680930Y-81694070D01*
X128695346Y-81709976D01*
X128708134Y-81727219D01*
X128719170Y-81745632D01*
X128728349Y-81765038D01*
X128735581Y-81785250D01*
X128740797Y-81806074D01*
X128743947Y-81827309D01*
X128745000Y-81848750D01*
X128745000Y-82286250D01*
X128743947Y-82307691D01*
X128740797Y-82328926D01*
X128735581Y-82349750D01*
X128728349Y-82369962D01*
X128719170Y-82389368D01*
X128708134Y-82407781D01*
X128695346Y-82425024D01*
X128680930Y-82440930D01*
X128665024Y-82455346D01*
X128647781Y-82468134D01*
X128629368Y-82479170D01*
X128609962Y-82488349D01*
X128589750Y-82495581D01*
X128568926Y-82500797D01*
X128547691Y-82503947D01*
X128526250Y-82505000D01*
X128013750Y-82505000D01*
X127992309Y-82503947D01*
X127971074Y-82500797D01*
X127950250Y-82495581D01*
X127930038Y-82488349D01*
X127910632Y-82479170D01*
X127892219Y-82468134D01*
X127874976Y-82455346D01*
X127859070Y-82440930D01*
X127844654Y-82425024D01*
X127831866Y-82407781D01*
X127820830Y-82389368D01*
X127811651Y-82369962D01*
X127804419Y-82349750D01*
X127799203Y-82328926D01*
X127796053Y-82307691D01*
X127795000Y-82286250D01*
X127795000Y-81848750D01*
X127796053Y-81827309D01*
X127799203Y-81806074D01*
X127804419Y-81785250D01*
X127811651Y-81765038D01*
X127820830Y-81745632D01*
X127831866Y-81727219D01*
X127844654Y-81709976D01*
X127859070Y-81694070D01*
X127874976Y-81679654D01*
X127892219Y-81666866D01*
X127910632Y-81655830D01*
X127930038Y-81646651D01*
X127950250Y-81639419D01*
X127971074Y-81634203D01*
X127992309Y-81631053D01*
X128013750Y-81630000D01*
X128526250Y-81630000D01*
X128547691Y-81631053D01*
X128547691Y-81631053D01*
G37*
D11*
G04 #@! TD*
G04 #@! TO.P,C2,2*
G04 #@! TO.N,GND*
X128270000Y-82067500D03*
D10*
G04 #@! TO.N,VDD*
G04 #@! TO.C,C2*
G36*
X128547691Y-80056053D02*
X128568926Y-80059203D01*
X128589750Y-80064419D01*
X128609962Y-80071651D01*
X128629368Y-80080830D01*
X128647781Y-80091866D01*
X128665024Y-80104654D01*
X128680930Y-80119070D01*
X128695346Y-80134976D01*
X128708134Y-80152219D01*
X128719170Y-80170632D01*
X128728349Y-80190038D01*
X128735581Y-80210250D01*
X128740797Y-80231074D01*
X128743947Y-80252309D01*
X128745000Y-80273750D01*
X128745000Y-80711250D01*
X128743947Y-80732691D01*
X128740797Y-80753926D01*
X128735581Y-80774750D01*
X128728349Y-80794962D01*
X128719170Y-80814368D01*
X128708134Y-80832781D01*
X128695346Y-80850024D01*
X128680930Y-80865930D01*
X128665024Y-80880346D01*
X128647781Y-80893134D01*
X128629368Y-80904170D01*
X128609962Y-80913349D01*
X128589750Y-80920581D01*
X128568926Y-80925797D01*
X128547691Y-80928947D01*
X128526250Y-80930000D01*
X128013750Y-80930000D01*
X127992309Y-80928947D01*
X127971074Y-80925797D01*
X127950250Y-80920581D01*
X127930038Y-80913349D01*
X127910632Y-80904170D01*
X127892219Y-80893134D01*
X127874976Y-80880346D01*
X127859070Y-80865930D01*
X127844654Y-80850024D01*
X127831866Y-80832781D01*
X127820830Y-80814368D01*
X127811651Y-80794962D01*
X127804419Y-80774750D01*
X127799203Y-80753926D01*
X127796053Y-80732691D01*
X127795000Y-80711250D01*
X127795000Y-80273750D01*
X127796053Y-80252309D01*
X127799203Y-80231074D01*
X127804419Y-80210250D01*
X127811651Y-80190038D01*
X127820830Y-80170632D01*
X127831866Y-80152219D01*
X127844654Y-80134976D01*
X127859070Y-80119070D01*
X127874976Y-80104654D01*
X127892219Y-80091866D01*
X127910632Y-80080830D01*
X127930038Y-80071651D01*
X127950250Y-80064419D01*
X127971074Y-80059203D01*
X127992309Y-80056053D01*
X128013750Y-80055000D01*
X128526250Y-80055000D01*
X128547691Y-80056053D01*
X128547691Y-80056053D01*
G37*
D11*
G04 #@! TD*
G04 #@! TO.P,C2,1*
G04 #@! TO.N,VDD*
X128270000Y-80492500D03*
D10*
G04 #@! TO.N,GND*
G04 #@! TO.C,C3*
G36*
X124737691Y-80056053D02*
X124758926Y-80059203D01*
X124779750Y-80064419D01*
X124799962Y-80071651D01*
X124819368Y-80080830D01*
X124837781Y-80091866D01*
X124855024Y-80104654D01*
X124870930Y-80119070D01*
X124885346Y-80134976D01*
X124898134Y-80152219D01*
X124909170Y-80170632D01*
X124918349Y-80190038D01*
X124925581Y-80210250D01*
X124930797Y-80231074D01*
X124933947Y-80252309D01*
X124935000Y-80273750D01*
X124935000Y-80711250D01*
X124933947Y-80732691D01*
X124930797Y-80753926D01*
X124925581Y-80774750D01*
X124918349Y-80794962D01*
X124909170Y-80814368D01*
X124898134Y-80832781D01*
X124885346Y-80850024D01*
X124870930Y-80865930D01*
X124855024Y-80880346D01*
X124837781Y-80893134D01*
X124819368Y-80904170D01*
X124799962Y-80913349D01*
X124779750Y-80920581D01*
X124758926Y-80925797D01*
X124737691Y-80928947D01*
X124716250Y-80930000D01*
X124203750Y-80930000D01*
X124182309Y-80928947D01*
X124161074Y-80925797D01*
X124140250Y-80920581D01*
X124120038Y-80913349D01*
X124100632Y-80904170D01*
X124082219Y-80893134D01*
X124064976Y-80880346D01*
X124049070Y-80865930D01*
X124034654Y-80850024D01*
X124021866Y-80832781D01*
X124010830Y-80814368D01*
X124001651Y-80794962D01*
X123994419Y-80774750D01*
X123989203Y-80753926D01*
X123986053Y-80732691D01*
X123985000Y-80711250D01*
X123985000Y-80273750D01*
X123986053Y-80252309D01*
X123989203Y-80231074D01*
X123994419Y-80210250D01*
X124001651Y-80190038D01*
X124010830Y-80170632D01*
X124021866Y-80152219D01*
X124034654Y-80134976D01*
X124049070Y-80119070D01*
X124064976Y-80104654D01*
X124082219Y-80091866D01*
X124100632Y-80080830D01*
X124120038Y-80071651D01*
X124140250Y-80064419D01*
X124161074Y-80059203D01*
X124182309Y-80056053D01*
X124203750Y-80055000D01*
X124716250Y-80055000D01*
X124737691Y-80056053D01*
X124737691Y-80056053D01*
G37*
D11*
G04 #@! TD*
G04 #@! TO.P,C3,2*
G04 #@! TO.N,GND*
X124460000Y-80492500D03*
D10*
G04 #@! TO.N,Net-(C3-Pad1)*
G04 #@! TO.C,C3*
G36*
X124737691Y-81631053D02*
X124758926Y-81634203D01*
X124779750Y-81639419D01*
X124799962Y-81646651D01*
X124819368Y-81655830D01*
X124837781Y-81666866D01*
X124855024Y-81679654D01*
X124870930Y-81694070D01*
X124885346Y-81709976D01*
X124898134Y-81727219D01*
X124909170Y-81745632D01*
X124918349Y-81765038D01*
X124925581Y-81785250D01*
X124930797Y-81806074D01*
X124933947Y-81827309D01*
X124935000Y-81848750D01*
X124935000Y-82286250D01*
X124933947Y-82307691D01*
X124930797Y-82328926D01*
X124925581Y-82349750D01*
X124918349Y-82369962D01*
X124909170Y-82389368D01*
X124898134Y-82407781D01*
X124885346Y-82425024D01*
X124870930Y-82440930D01*
X124855024Y-82455346D01*
X124837781Y-82468134D01*
X124819368Y-82479170D01*
X124799962Y-82488349D01*
X124779750Y-82495581D01*
X124758926Y-82500797D01*
X124737691Y-82503947D01*
X124716250Y-82505000D01*
X124203750Y-82505000D01*
X124182309Y-82503947D01*
X124161074Y-82500797D01*
X124140250Y-82495581D01*
X124120038Y-82488349D01*
X124100632Y-82479170D01*
X124082219Y-82468134D01*
X124064976Y-82455346D01*
X124049070Y-82440930D01*
X124034654Y-82425024D01*
X124021866Y-82407781D01*
X124010830Y-82389368D01*
X124001651Y-82369962D01*
X123994419Y-82349750D01*
X123989203Y-82328926D01*
X123986053Y-82307691D01*
X123985000Y-82286250D01*
X123985000Y-81848750D01*
X123986053Y-81827309D01*
X123989203Y-81806074D01*
X123994419Y-81785250D01*
X124001651Y-81765038D01*
X124010830Y-81745632D01*
X124021866Y-81727219D01*
X124034654Y-81709976D01*
X124049070Y-81694070D01*
X124064976Y-81679654D01*
X124082219Y-81666866D01*
X124100632Y-81655830D01*
X124120038Y-81646651D01*
X124140250Y-81639419D01*
X124161074Y-81634203D01*
X124182309Y-81631053D01*
X124203750Y-81630000D01*
X124716250Y-81630000D01*
X124737691Y-81631053D01*
X124737691Y-81631053D01*
G37*
D11*
G04 #@! TD*
G04 #@! TO.P,C3,1*
G04 #@! TO.N,Net-(C3-Pad1)*
X124460000Y-82067500D03*
D10*
G04 #@! TO.N,GND*
G04 #@! TO.C,C4*
G36*
X131837691Y-63026053D02*
X131858926Y-63029203D01*
X131879750Y-63034419D01*
X131899962Y-63041651D01*
X131919368Y-63050830D01*
X131937781Y-63061866D01*
X131955024Y-63074654D01*
X131970930Y-63089070D01*
X131985346Y-63104976D01*
X131998134Y-63122219D01*
X132009170Y-63140632D01*
X132018349Y-63160038D01*
X132025581Y-63180250D01*
X132030797Y-63201074D01*
X132033947Y-63222309D01*
X132035000Y-63243750D01*
X132035000Y-63756250D01*
X132033947Y-63777691D01*
X132030797Y-63798926D01*
X132025581Y-63819750D01*
X132018349Y-63839962D01*
X132009170Y-63859368D01*
X131998134Y-63877781D01*
X131985346Y-63895024D01*
X131970930Y-63910930D01*
X131955024Y-63925346D01*
X131937781Y-63938134D01*
X131919368Y-63949170D01*
X131899962Y-63958349D01*
X131879750Y-63965581D01*
X131858926Y-63970797D01*
X131837691Y-63973947D01*
X131816250Y-63975000D01*
X131378750Y-63975000D01*
X131357309Y-63973947D01*
X131336074Y-63970797D01*
X131315250Y-63965581D01*
X131295038Y-63958349D01*
X131275632Y-63949170D01*
X131257219Y-63938134D01*
X131239976Y-63925346D01*
X131224070Y-63910930D01*
X131209654Y-63895024D01*
X131196866Y-63877781D01*
X131185830Y-63859368D01*
X131176651Y-63839962D01*
X131169419Y-63819750D01*
X131164203Y-63798926D01*
X131161053Y-63777691D01*
X131160000Y-63756250D01*
X131160000Y-63243750D01*
X131161053Y-63222309D01*
X131164203Y-63201074D01*
X131169419Y-63180250D01*
X131176651Y-63160038D01*
X131185830Y-63140632D01*
X131196866Y-63122219D01*
X131209654Y-63104976D01*
X131224070Y-63089070D01*
X131239976Y-63074654D01*
X131257219Y-63061866D01*
X131275632Y-63050830D01*
X131295038Y-63041651D01*
X131315250Y-63034419D01*
X131336074Y-63029203D01*
X131357309Y-63026053D01*
X131378750Y-63025000D01*
X131816250Y-63025000D01*
X131837691Y-63026053D01*
X131837691Y-63026053D01*
G37*
D11*
G04 #@! TD*
G04 #@! TO.P,C4,1*
G04 #@! TO.N,GND*
X131597500Y-63500000D03*
D10*
G04 #@! TO.N,VDD*
G04 #@! TO.C,C4*
G36*
X130262691Y-63026053D02*
X130283926Y-63029203D01*
X130304750Y-63034419D01*
X130324962Y-63041651D01*
X130344368Y-63050830D01*
X130362781Y-63061866D01*
X130380024Y-63074654D01*
X130395930Y-63089070D01*
X130410346Y-63104976D01*
X130423134Y-63122219D01*
X130434170Y-63140632D01*
X130443349Y-63160038D01*
X130450581Y-63180250D01*
X130455797Y-63201074D01*
X130458947Y-63222309D01*
X130460000Y-63243750D01*
X130460000Y-63756250D01*
X130458947Y-63777691D01*
X130455797Y-63798926D01*
X130450581Y-63819750D01*
X130443349Y-63839962D01*
X130434170Y-63859368D01*
X130423134Y-63877781D01*
X130410346Y-63895024D01*
X130395930Y-63910930D01*
X130380024Y-63925346D01*
X130362781Y-63938134D01*
X130344368Y-63949170D01*
X130324962Y-63958349D01*
X130304750Y-63965581D01*
X130283926Y-63970797D01*
X130262691Y-63973947D01*
X130241250Y-63975000D01*
X129803750Y-63975000D01*
X129782309Y-63973947D01*
X129761074Y-63970797D01*
X129740250Y-63965581D01*
X129720038Y-63958349D01*
X129700632Y-63949170D01*
X129682219Y-63938134D01*
X129664976Y-63925346D01*
X129649070Y-63910930D01*
X129634654Y-63895024D01*
X129621866Y-63877781D01*
X129610830Y-63859368D01*
X129601651Y-63839962D01*
X129594419Y-63819750D01*
X129589203Y-63798926D01*
X129586053Y-63777691D01*
X129585000Y-63756250D01*
X129585000Y-63243750D01*
X129586053Y-63222309D01*
X129589203Y-63201074D01*
X129594419Y-63180250D01*
X129601651Y-63160038D01*
X129610830Y-63140632D01*
X129621866Y-63122219D01*
X129634654Y-63104976D01*
X129649070Y-63089070D01*
X129664976Y-63074654D01*
X129682219Y-63061866D01*
X129700632Y-63050830D01*
X129720038Y-63041651D01*
X129740250Y-63034419D01*
X129761074Y-63029203D01*
X129782309Y-63026053D01*
X129803750Y-63025000D01*
X130241250Y-63025000D01*
X130262691Y-63026053D01*
X130262691Y-63026053D01*
G37*
D11*
G04 #@! TD*
G04 #@! TO.P,C4,2*
G04 #@! TO.N,VDD*
X130022500Y-63500000D03*
D10*
G04 #@! TO.N,Net-(C5-Pad1)*
G04 #@! TO.C,C5*
G36*
X161047691Y-74456053D02*
X161068926Y-74459203D01*
X161089750Y-74464419D01*
X161109962Y-74471651D01*
X161129368Y-74480830D01*
X161147781Y-74491866D01*
X161165024Y-74504654D01*
X161180930Y-74519070D01*
X161195346Y-74534976D01*
X161208134Y-74552219D01*
X161219170Y-74570632D01*
X161228349Y-74590038D01*
X161235581Y-74610250D01*
X161240797Y-74631074D01*
X161243947Y-74652309D01*
X161245000Y-74673750D01*
X161245000Y-75186250D01*
X161243947Y-75207691D01*
X161240797Y-75228926D01*
X161235581Y-75249750D01*
X161228349Y-75269962D01*
X161219170Y-75289368D01*
X161208134Y-75307781D01*
X161195346Y-75325024D01*
X161180930Y-75340930D01*
X161165024Y-75355346D01*
X161147781Y-75368134D01*
X161129368Y-75379170D01*
X161109962Y-75388349D01*
X161089750Y-75395581D01*
X161068926Y-75400797D01*
X161047691Y-75403947D01*
X161026250Y-75405000D01*
X160588750Y-75405000D01*
X160567309Y-75403947D01*
X160546074Y-75400797D01*
X160525250Y-75395581D01*
X160505038Y-75388349D01*
X160485632Y-75379170D01*
X160467219Y-75368134D01*
X160449976Y-75355346D01*
X160434070Y-75340930D01*
X160419654Y-75325024D01*
X160406866Y-75307781D01*
X160395830Y-75289368D01*
X160386651Y-75269962D01*
X160379419Y-75249750D01*
X160374203Y-75228926D01*
X160371053Y-75207691D01*
X160370000Y-75186250D01*
X160370000Y-74673750D01*
X160371053Y-74652309D01*
X160374203Y-74631074D01*
X160379419Y-74610250D01*
X160386651Y-74590038D01*
X160395830Y-74570632D01*
X160406866Y-74552219D01*
X160419654Y-74534976D01*
X160434070Y-74519070D01*
X160449976Y-74504654D01*
X160467219Y-74491866D01*
X160485632Y-74480830D01*
X160505038Y-74471651D01*
X160525250Y-74464419D01*
X160546074Y-74459203D01*
X160567309Y-74456053D01*
X160588750Y-74455000D01*
X161026250Y-74455000D01*
X161047691Y-74456053D01*
X161047691Y-74456053D01*
G37*
D11*
G04 #@! TD*
G04 #@! TO.P,C5,1*
G04 #@! TO.N,Net-(C5-Pad1)*
X160807500Y-74930000D03*
D10*
G04 #@! TO.N,GND*
G04 #@! TO.C,C5*
G36*
X159472691Y-74456053D02*
X159493926Y-74459203D01*
X159514750Y-74464419D01*
X159534962Y-74471651D01*
X159554368Y-74480830D01*
X159572781Y-74491866D01*
X159590024Y-74504654D01*
X159605930Y-74519070D01*
X159620346Y-74534976D01*
X159633134Y-74552219D01*
X159644170Y-74570632D01*
X159653349Y-74590038D01*
X159660581Y-74610250D01*
X159665797Y-74631074D01*
X159668947Y-74652309D01*
X159670000Y-74673750D01*
X159670000Y-75186250D01*
X159668947Y-75207691D01*
X159665797Y-75228926D01*
X159660581Y-75249750D01*
X159653349Y-75269962D01*
X159644170Y-75289368D01*
X159633134Y-75307781D01*
X159620346Y-75325024D01*
X159605930Y-75340930D01*
X159590024Y-75355346D01*
X159572781Y-75368134D01*
X159554368Y-75379170D01*
X159534962Y-75388349D01*
X159514750Y-75395581D01*
X159493926Y-75400797D01*
X159472691Y-75403947D01*
X159451250Y-75405000D01*
X159013750Y-75405000D01*
X158992309Y-75403947D01*
X158971074Y-75400797D01*
X158950250Y-75395581D01*
X158930038Y-75388349D01*
X158910632Y-75379170D01*
X158892219Y-75368134D01*
X158874976Y-75355346D01*
X158859070Y-75340930D01*
X158844654Y-75325024D01*
X158831866Y-75307781D01*
X158820830Y-75289368D01*
X158811651Y-75269962D01*
X158804419Y-75249750D01*
X158799203Y-75228926D01*
X158796053Y-75207691D01*
X158795000Y-75186250D01*
X158795000Y-74673750D01*
X158796053Y-74652309D01*
X158799203Y-74631074D01*
X158804419Y-74610250D01*
X158811651Y-74590038D01*
X158820830Y-74570632D01*
X158831866Y-74552219D01*
X158844654Y-74534976D01*
X158859070Y-74519070D01*
X158874976Y-74504654D01*
X158892219Y-74491866D01*
X158910632Y-74480830D01*
X158930038Y-74471651D01*
X158950250Y-74464419D01*
X158971074Y-74459203D01*
X158992309Y-74456053D01*
X159013750Y-74455000D01*
X159451250Y-74455000D01*
X159472691Y-74456053D01*
X159472691Y-74456053D01*
G37*
D11*
G04 #@! TD*
G04 #@! TO.P,C5,2*
G04 #@! TO.N,GND*
X159232500Y-74930000D03*
D10*
G04 #@! TO.N,GND*
G04 #@! TO.C,C6*
G36*
X134897691Y-76246053D02*
X134918926Y-76249203D01*
X134939750Y-76254419D01*
X134959962Y-76261651D01*
X134979368Y-76270830D01*
X134997781Y-76281866D01*
X135015024Y-76294654D01*
X135030930Y-76309070D01*
X135045346Y-76324976D01*
X135058134Y-76342219D01*
X135069170Y-76360632D01*
X135078349Y-76380038D01*
X135085581Y-76400250D01*
X135090797Y-76421074D01*
X135093947Y-76442309D01*
X135095000Y-76463750D01*
X135095000Y-76901250D01*
X135093947Y-76922691D01*
X135090797Y-76943926D01*
X135085581Y-76964750D01*
X135078349Y-76984962D01*
X135069170Y-77004368D01*
X135058134Y-77022781D01*
X135045346Y-77040024D01*
X135030930Y-77055930D01*
X135015024Y-77070346D01*
X134997781Y-77083134D01*
X134979368Y-77094170D01*
X134959962Y-77103349D01*
X134939750Y-77110581D01*
X134918926Y-77115797D01*
X134897691Y-77118947D01*
X134876250Y-77120000D01*
X134363750Y-77120000D01*
X134342309Y-77118947D01*
X134321074Y-77115797D01*
X134300250Y-77110581D01*
X134280038Y-77103349D01*
X134260632Y-77094170D01*
X134242219Y-77083134D01*
X134224976Y-77070346D01*
X134209070Y-77055930D01*
X134194654Y-77040024D01*
X134181866Y-77022781D01*
X134170830Y-77004368D01*
X134161651Y-76984962D01*
X134154419Y-76964750D01*
X134149203Y-76943926D01*
X134146053Y-76922691D01*
X134145000Y-76901250D01*
X134145000Y-76463750D01*
X134146053Y-76442309D01*
X134149203Y-76421074D01*
X134154419Y-76400250D01*
X134161651Y-76380038D01*
X134170830Y-76360632D01*
X134181866Y-76342219D01*
X134194654Y-76324976D01*
X134209070Y-76309070D01*
X134224976Y-76294654D01*
X134242219Y-76281866D01*
X134260632Y-76270830D01*
X134280038Y-76261651D01*
X134300250Y-76254419D01*
X134321074Y-76249203D01*
X134342309Y-76246053D01*
X134363750Y-76245000D01*
X134876250Y-76245000D01*
X134897691Y-76246053D01*
X134897691Y-76246053D01*
G37*
D11*
G04 #@! TD*
G04 #@! TO.P,C6,2*
G04 #@! TO.N,GND*
X134620000Y-76682500D03*
D10*
G04 #@! TO.N,VDD*
G04 #@! TO.C,C6*
G36*
X134897691Y-77821053D02*
X134918926Y-77824203D01*
X134939750Y-77829419D01*
X134959962Y-77836651D01*
X134979368Y-77845830D01*
X134997781Y-77856866D01*
X135015024Y-77869654D01*
X135030930Y-77884070D01*
X135045346Y-77899976D01*
X135058134Y-77917219D01*
X135069170Y-77935632D01*
X135078349Y-77955038D01*
X135085581Y-77975250D01*
X135090797Y-77996074D01*
X135093947Y-78017309D01*
X135095000Y-78038750D01*
X135095000Y-78476250D01*
X135093947Y-78497691D01*
X135090797Y-78518926D01*
X135085581Y-78539750D01*
X135078349Y-78559962D01*
X135069170Y-78579368D01*
X135058134Y-78597781D01*
X135045346Y-78615024D01*
X135030930Y-78630930D01*
X135015024Y-78645346D01*
X134997781Y-78658134D01*
X134979368Y-78669170D01*
X134959962Y-78678349D01*
X134939750Y-78685581D01*
X134918926Y-78690797D01*
X134897691Y-78693947D01*
X134876250Y-78695000D01*
X134363750Y-78695000D01*
X134342309Y-78693947D01*
X134321074Y-78690797D01*
X134300250Y-78685581D01*
X134280038Y-78678349D01*
X134260632Y-78669170D01*
X134242219Y-78658134D01*
X134224976Y-78645346D01*
X134209070Y-78630930D01*
X134194654Y-78615024D01*
X134181866Y-78597781D01*
X134170830Y-78579368D01*
X134161651Y-78559962D01*
X134154419Y-78539750D01*
X134149203Y-78518926D01*
X134146053Y-78497691D01*
X134145000Y-78476250D01*
X134145000Y-78038750D01*
X134146053Y-78017309D01*
X134149203Y-77996074D01*
X134154419Y-77975250D01*
X134161651Y-77955038D01*
X134170830Y-77935632D01*
X134181866Y-77917219D01*
X134194654Y-77899976D01*
X134209070Y-77884070D01*
X134224976Y-77869654D01*
X134242219Y-77856866D01*
X134260632Y-77845830D01*
X134280038Y-77836651D01*
X134300250Y-77829419D01*
X134321074Y-77824203D01*
X134342309Y-77821053D01*
X134363750Y-77820000D01*
X134876250Y-77820000D01*
X134897691Y-77821053D01*
X134897691Y-77821053D01*
G37*
D11*
G04 #@! TD*
G04 #@! TO.P,C6,1*
G04 #@! TO.N,VDD*
X134620000Y-78257500D03*
D12*
G04 #@! TO.P,D1,1*
G04 #@! TO.N,GND*
X107950000Y-70612000D03*
D13*
G04 #@! TO.P,D1,2*
G04 #@! TO.N,Net-(D1-Pad2)*
X107950000Y-71882000D03*
G04 #@! TO.P,D1,3*
G04 #@! TO.N,Net-(D1-Pad3)*
X107950000Y-73152000D03*
G04 #@! TO.P,D1,4*
G04 #@! TO.N,Net-(D1-Pad4)*
X107950000Y-74422000D03*
G04 #@! TD*
D14*
G04 #@! TO.P,J1,1*
G04 #@! TO.N,Net-(C5-Pad1)*
X178550000Y-72200000D03*
G04 #@! TO.P,J1,2*
G04 #@! TO.N,Net-(J1-Pad2)*
X178550000Y-71550000D03*
G04 #@! TO.P,J1,3*
G04 #@! TO.N,Net-(J1-Pad3)*
X178550000Y-70900000D03*
G04 #@! TO.P,J1,4*
G04 #@! TO.N,Net-(J1-Pad4)*
X178550000Y-70250000D03*
G04 #@! TO.P,J1,5*
G04 #@! TO.N,GND*
X178550000Y-69600000D03*
D15*
G04 #@! TO.P,J1,6*
X181400000Y-74650000D03*
G04 #@! TO.P,J1,7*
G04 #@! TO.N,N/C*
X181400000Y-67150000D03*
D16*
G04 #@! TO.P,J1,8*
X181400000Y-72050000D03*
G04 #@! TO.P,J1,9*
X181400000Y-69750000D03*
G04 #@! TD*
D17*
G04 #@! TO.P,J2,1*
G04 #@! TO.N,VDD*
X132734000Y-83048100D03*
D18*
G04 #@! TO.P,J2,2*
G04 #@! TO.N,Net-(J2-Pad2)*
X135274000Y-83048100D03*
G04 #@! TO.P,J2,3*
G04 #@! TO.N,Net-(J2-Pad3)*
X137814000Y-83048100D03*
G04 #@! TO.P,J2,4*
G04 #@! TO.N,Net-(J2-Pad4)*
X140354000Y-83048100D03*
G04 #@! TO.P,J2,5*
G04 #@! TO.N,Net-(J2-Pad5)*
X142894000Y-83048100D03*
G04 #@! TO.P,J2,6*
G04 #@! TO.N,Net-(J2-Pad6)*
X145434000Y-83048100D03*
G04 #@! TO.P,J2,7*
G04 #@! TO.N,Net-(J2-Pad7)*
X147974000Y-83048100D03*
G04 #@! TO.P,J2,8*
G04 #@! TO.N,Net-(J2-Pad8)*
X150514000Y-83048100D03*
G04 #@! TO.P,J2,9*
G04 #@! TO.N,Net-(J2-Pad9)*
X153054000Y-83048100D03*
G04 #@! TO.P,J2,10*
G04 #@! TO.N,GND*
X155594000Y-83048100D03*
G04 #@! TD*
D19*
G04 #@! TO.P,P1,1*
G04 #@! TO.N,VDD*
X129540000Y-56515000D03*
G04 #@! TO.P,P1,2*
G04 #@! TO.N,Net-(P1-Pad2)*
X129540000Y-55245000D03*
G04 #@! TO.P,P1,3*
G04 #@! TO.N,Net-(P1-Pad3)*
X130810000Y-56515000D03*
G04 #@! TO.P,P1,4*
G04 #@! TO.N,Net-(P1-Pad4)*
X130810000Y-55245000D03*
G04 #@! TO.P,P1,5*
G04 #@! TO.N,GND*
X132080000Y-56515000D03*
G04 #@! TO.P,P1,6*
G04 #@! TO.N,Net-(P1-Pad6)*
X132080000Y-55245000D03*
G04 #@! TD*
D10*
G04 #@! TO.N,Net-(R1-Pad1)*
G04 #@! TO.C,R1*
G36*
X106957691Y-64816053D02*
X106978926Y-64819203D01*
X106999750Y-64824419D01*
X107019962Y-64831651D01*
X107039368Y-64840830D01*
X107057781Y-64851866D01*
X107075024Y-64864654D01*
X107090930Y-64879070D01*
X107105346Y-64894976D01*
X107118134Y-64912219D01*
X107129170Y-64930632D01*
X107138349Y-64950038D01*
X107145581Y-64970250D01*
X107150797Y-64991074D01*
X107153947Y-65012309D01*
X107155000Y-65033750D01*
X107155000Y-65471250D01*
X107153947Y-65492691D01*
X107150797Y-65513926D01*
X107145581Y-65534750D01*
X107138349Y-65554962D01*
X107129170Y-65574368D01*
X107118134Y-65592781D01*
X107105346Y-65610024D01*
X107090930Y-65625930D01*
X107075024Y-65640346D01*
X107057781Y-65653134D01*
X107039368Y-65664170D01*
X107019962Y-65673349D01*
X106999750Y-65680581D01*
X106978926Y-65685797D01*
X106957691Y-65688947D01*
X106936250Y-65690000D01*
X106423750Y-65690000D01*
X106402309Y-65688947D01*
X106381074Y-65685797D01*
X106360250Y-65680581D01*
X106340038Y-65673349D01*
X106320632Y-65664170D01*
X106302219Y-65653134D01*
X106284976Y-65640346D01*
X106269070Y-65625930D01*
X106254654Y-65610024D01*
X106241866Y-65592781D01*
X106230830Y-65574368D01*
X106221651Y-65554962D01*
X106214419Y-65534750D01*
X106209203Y-65513926D01*
X106206053Y-65492691D01*
X106205000Y-65471250D01*
X106205000Y-65033750D01*
X106206053Y-65012309D01*
X106209203Y-64991074D01*
X106214419Y-64970250D01*
X106221651Y-64950038D01*
X106230830Y-64930632D01*
X106241866Y-64912219D01*
X106254654Y-64894976D01*
X106269070Y-64879070D01*
X106284976Y-64864654D01*
X106302219Y-64851866D01*
X106320632Y-64840830D01*
X106340038Y-64831651D01*
X106360250Y-64824419D01*
X106381074Y-64819203D01*
X106402309Y-64816053D01*
X106423750Y-64815000D01*
X106936250Y-64815000D01*
X106957691Y-64816053D01*
X106957691Y-64816053D01*
G37*
D11*
G04 #@! TD*
G04 #@! TO.P,R1,1*
G04 #@! TO.N,Net-(R1-Pad1)*
X106680000Y-65252500D03*
D10*
G04 #@! TO.N,Net-(D1-Pad2)*
G04 #@! TO.C,R1*
G36*
X106957691Y-66391053D02*
X106978926Y-66394203D01*
X106999750Y-66399419D01*
X107019962Y-66406651D01*
X107039368Y-66415830D01*
X107057781Y-66426866D01*
X107075024Y-66439654D01*
X107090930Y-66454070D01*
X107105346Y-66469976D01*
X107118134Y-66487219D01*
X107129170Y-66505632D01*
X107138349Y-66525038D01*
X107145581Y-66545250D01*
X107150797Y-66566074D01*
X107153947Y-66587309D01*
X107155000Y-66608750D01*
X107155000Y-67046250D01*
X107153947Y-67067691D01*
X107150797Y-67088926D01*
X107145581Y-67109750D01*
X107138349Y-67129962D01*
X107129170Y-67149368D01*
X107118134Y-67167781D01*
X107105346Y-67185024D01*
X107090930Y-67200930D01*
X107075024Y-67215346D01*
X107057781Y-67228134D01*
X107039368Y-67239170D01*
X107019962Y-67248349D01*
X106999750Y-67255581D01*
X106978926Y-67260797D01*
X106957691Y-67263947D01*
X106936250Y-67265000D01*
X106423750Y-67265000D01*
X106402309Y-67263947D01*
X106381074Y-67260797D01*
X106360250Y-67255581D01*
X106340038Y-67248349D01*
X106320632Y-67239170D01*
X106302219Y-67228134D01*
X106284976Y-67215346D01*
X106269070Y-67200930D01*
X106254654Y-67185024D01*
X106241866Y-67167781D01*
X106230830Y-67149368D01*
X106221651Y-67129962D01*
X106214419Y-67109750D01*
X106209203Y-67088926D01*
X106206053Y-67067691D01*
X106205000Y-67046250D01*
X106205000Y-66608750D01*
X106206053Y-66587309D01*
X106209203Y-66566074D01*
X106214419Y-66545250D01*
X106221651Y-66525038D01*
X106230830Y-66505632D01*
X106241866Y-66487219D01*
X106254654Y-66469976D01*
X106269070Y-66454070D01*
X106284976Y-66439654D01*
X106302219Y-66426866D01*
X106320632Y-66415830D01*
X106340038Y-66406651D01*
X106360250Y-66399419D01*
X106381074Y-66394203D01*
X106402309Y-66391053D01*
X106423750Y-66390000D01*
X106936250Y-66390000D01*
X106957691Y-66391053D01*
X106957691Y-66391053D01*
G37*
D11*
G04 #@! TD*
G04 #@! TO.P,R1,2*
G04 #@! TO.N,Net-(D1-Pad2)*
X106680000Y-66827500D03*
D10*
G04 #@! TO.N,Net-(D1-Pad3)*
G04 #@! TO.C,R2*
G36*
X109497691Y-77516053D02*
X109518926Y-77519203D01*
X109539750Y-77524419D01*
X109559962Y-77531651D01*
X109579368Y-77540830D01*
X109597781Y-77551866D01*
X109615024Y-77564654D01*
X109630930Y-77579070D01*
X109645346Y-77594976D01*
X109658134Y-77612219D01*
X109669170Y-77630632D01*
X109678349Y-77650038D01*
X109685581Y-77670250D01*
X109690797Y-77691074D01*
X109693947Y-77712309D01*
X109695000Y-77733750D01*
X109695000Y-78171250D01*
X109693947Y-78192691D01*
X109690797Y-78213926D01*
X109685581Y-78234750D01*
X109678349Y-78254962D01*
X109669170Y-78274368D01*
X109658134Y-78292781D01*
X109645346Y-78310024D01*
X109630930Y-78325930D01*
X109615024Y-78340346D01*
X109597781Y-78353134D01*
X109579368Y-78364170D01*
X109559962Y-78373349D01*
X109539750Y-78380581D01*
X109518926Y-78385797D01*
X109497691Y-78388947D01*
X109476250Y-78390000D01*
X108963750Y-78390000D01*
X108942309Y-78388947D01*
X108921074Y-78385797D01*
X108900250Y-78380581D01*
X108880038Y-78373349D01*
X108860632Y-78364170D01*
X108842219Y-78353134D01*
X108824976Y-78340346D01*
X108809070Y-78325930D01*
X108794654Y-78310024D01*
X108781866Y-78292781D01*
X108770830Y-78274368D01*
X108761651Y-78254962D01*
X108754419Y-78234750D01*
X108749203Y-78213926D01*
X108746053Y-78192691D01*
X108745000Y-78171250D01*
X108745000Y-77733750D01*
X108746053Y-77712309D01*
X108749203Y-77691074D01*
X108754419Y-77670250D01*
X108761651Y-77650038D01*
X108770830Y-77630632D01*
X108781866Y-77612219D01*
X108794654Y-77594976D01*
X108809070Y-77579070D01*
X108824976Y-77564654D01*
X108842219Y-77551866D01*
X108860632Y-77540830D01*
X108880038Y-77531651D01*
X108900250Y-77524419D01*
X108921074Y-77519203D01*
X108942309Y-77516053D01*
X108963750Y-77515000D01*
X109476250Y-77515000D01*
X109497691Y-77516053D01*
X109497691Y-77516053D01*
G37*
D11*
G04 #@! TD*
G04 #@! TO.P,R2,2*
G04 #@! TO.N,Net-(D1-Pad3)*
X109220000Y-77952500D03*
D10*
G04 #@! TO.N,Net-(R2-Pad1)*
G04 #@! TO.C,R2*
G36*
X109497691Y-79091053D02*
X109518926Y-79094203D01*
X109539750Y-79099419D01*
X109559962Y-79106651D01*
X109579368Y-79115830D01*
X109597781Y-79126866D01*
X109615024Y-79139654D01*
X109630930Y-79154070D01*
X109645346Y-79169976D01*
X109658134Y-79187219D01*
X109669170Y-79205632D01*
X109678349Y-79225038D01*
X109685581Y-79245250D01*
X109690797Y-79266074D01*
X109693947Y-79287309D01*
X109695000Y-79308750D01*
X109695000Y-79746250D01*
X109693947Y-79767691D01*
X109690797Y-79788926D01*
X109685581Y-79809750D01*
X109678349Y-79829962D01*
X109669170Y-79849368D01*
X109658134Y-79867781D01*
X109645346Y-79885024D01*
X109630930Y-79900930D01*
X109615024Y-79915346D01*
X109597781Y-79928134D01*
X109579368Y-79939170D01*
X109559962Y-79948349D01*
X109539750Y-79955581D01*
X109518926Y-79960797D01*
X109497691Y-79963947D01*
X109476250Y-79965000D01*
X108963750Y-79965000D01*
X108942309Y-79963947D01*
X108921074Y-79960797D01*
X108900250Y-79955581D01*
X108880038Y-79948349D01*
X108860632Y-79939170D01*
X108842219Y-79928134D01*
X108824976Y-79915346D01*
X108809070Y-79900930D01*
X108794654Y-79885024D01*
X108781866Y-79867781D01*
X108770830Y-79849368D01*
X108761651Y-79829962D01*
X108754419Y-79809750D01*
X108749203Y-79788926D01*
X108746053Y-79767691D01*
X108745000Y-79746250D01*
X108745000Y-79308750D01*
X108746053Y-79287309D01*
X108749203Y-79266074D01*
X108754419Y-79245250D01*
X108761651Y-79225038D01*
X108770830Y-79205632D01*
X108781866Y-79187219D01*
X108794654Y-79169976D01*
X108809070Y-79154070D01*
X108824976Y-79139654D01*
X108842219Y-79126866D01*
X108860632Y-79115830D01*
X108880038Y-79106651D01*
X108900250Y-79099419D01*
X108921074Y-79094203D01*
X108942309Y-79091053D01*
X108963750Y-79090000D01*
X109476250Y-79090000D01*
X109497691Y-79091053D01*
X109497691Y-79091053D01*
G37*
D11*
G04 #@! TD*
G04 #@! TO.P,R2,1*
G04 #@! TO.N,Net-(R2-Pad1)*
X109220000Y-79527500D03*
D10*
G04 #@! TO.N,Net-(C3-Pad1)*
G04 #@! TO.C,R3*
G36*
X106957691Y-84171053D02*
X106978926Y-84174203D01*
X106999750Y-84179419D01*
X107019962Y-84186651D01*
X107039368Y-84195830D01*
X107057781Y-84206866D01*
X107075024Y-84219654D01*
X107090930Y-84234070D01*
X107105346Y-84249976D01*
X107118134Y-84267219D01*
X107129170Y-84285632D01*
X107138349Y-84305038D01*
X107145581Y-84325250D01*
X107150797Y-84346074D01*
X107153947Y-84367309D01*
X107155000Y-84388750D01*
X107155000Y-84826250D01*
X107153947Y-84847691D01*
X107150797Y-84868926D01*
X107145581Y-84889750D01*
X107138349Y-84909962D01*
X107129170Y-84929368D01*
X107118134Y-84947781D01*
X107105346Y-84965024D01*
X107090930Y-84980930D01*
X107075024Y-84995346D01*
X107057781Y-85008134D01*
X107039368Y-85019170D01*
X107019962Y-85028349D01*
X106999750Y-85035581D01*
X106978926Y-85040797D01*
X106957691Y-85043947D01*
X106936250Y-85045000D01*
X106423750Y-85045000D01*
X106402309Y-85043947D01*
X106381074Y-85040797D01*
X106360250Y-85035581D01*
X106340038Y-85028349D01*
X106320632Y-85019170D01*
X106302219Y-85008134D01*
X106284976Y-84995346D01*
X106269070Y-84980930D01*
X106254654Y-84965024D01*
X106241866Y-84947781D01*
X106230830Y-84929368D01*
X106221651Y-84909962D01*
X106214419Y-84889750D01*
X106209203Y-84868926D01*
X106206053Y-84847691D01*
X106205000Y-84826250D01*
X106205000Y-84388750D01*
X106206053Y-84367309D01*
X106209203Y-84346074D01*
X106214419Y-84325250D01*
X106221651Y-84305038D01*
X106230830Y-84285632D01*
X106241866Y-84267219D01*
X106254654Y-84249976D01*
X106269070Y-84234070D01*
X106284976Y-84219654D01*
X106302219Y-84206866D01*
X106320632Y-84195830D01*
X106340038Y-84186651D01*
X106360250Y-84179419D01*
X106381074Y-84174203D01*
X106402309Y-84171053D01*
X106423750Y-84170000D01*
X106936250Y-84170000D01*
X106957691Y-84171053D01*
X106957691Y-84171053D01*
G37*
D11*
G04 #@! TD*
G04 #@! TO.P,R3,1*
G04 #@! TO.N,Net-(C3-Pad1)*
X106680000Y-84607500D03*
D10*
G04 #@! TO.N,Net-(D1-Pad4)*
G04 #@! TO.C,R3*
G36*
X106957691Y-82596053D02*
X106978926Y-82599203D01*
X106999750Y-82604419D01*
X107019962Y-82611651D01*
X107039368Y-82620830D01*
X107057781Y-82631866D01*
X107075024Y-82644654D01*
X107090930Y-82659070D01*
X107105346Y-82674976D01*
X107118134Y-82692219D01*
X107129170Y-82710632D01*
X107138349Y-82730038D01*
X107145581Y-82750250D01*
X107150797Y-82771074D01*
X107153947Y-82792309D01*
X107155000Y-82813750D01*
X107155000Y-83251250D01*
X107153947Y-83272691D01*
X107150797Y-83293926D01*
X107145581Y-83314750D01*
X107138349Y-83334962D01*
X107129170Y-83354368D01*
X107118134Y-83372781D01*
X107105346Y-83390024D01*
X107090930Y-83405930D01*
X107075024Y-83420346D01*
X107057781Y-83433134D01*
X107039368Y-83444170D01*
X107019962Y-83453349D01*
X106999750Y-83460581D01*
X106978926Y-83465797D01*
X106957691Y-83468947D01*
X106936250Y-83470000D01*
X106423750Y-83470000D01*
X106402309Y-83468947D01*
X106381074Y-83465797D01*
X106360250Y-83460581D01*
X106340038Y-83453349D01*
X106320632Y-83444170D01*
X106302219Y-83433134D01*
X106284976Y-83420346D01*
X106269070Y-83405930D01*
X106254654Y-83390024D01*
X106241866Y-83372781D01*
X106230830Y-83354368D01*
X106221651Y-83334962D01*
X106214419Y-83314750D01*
X106209203Y-83293926D01*
X106206053Y-83272691D01*
X106205000Y-83251250D01*
X106205000Y-82813750D01*
X106206053Y-82792309D01*
X106209203Y-82771074D01*
X106214419Y-82750250D01*
X106221651Y-82730038D01*
X106230830Y-82710632D01*
X106241866Y-82692219D01*
X106254654Y-82674976D01*
X106269070Y-82659070D01*
X106284976Y-82644654D01*
X106302219Y-82631866D01*
X106320632Y-82620830D01*
X106340038Y-82611651D01*
X106360250Y-82604419D01*
X106381074Y-82599203D01*
X106402309Y-82596053D01*
X106423750Y-82595000D01*
X106936250Y-82595000D01*
X106957691Y-82596053D01*
X106957691Y-82596053D01*
G37*
D11*
G04 #@! TD*
G04 #@! TO.P,R3,2*
G04 #@! TO.N,Net-(D1-Pad4)*
X106680000Y-83032500D03*
D20*
G04 #@! TO.P,U1,1*
G04 #@! TO.N,Net-(U1-Pad1)*
X158100000Y-68520000D03*
G04 #@! TO.P,U1,2*
G04 #@! TO.N,Net-(U1-Pad2)*
X158100000Y-68020000D03*
G04 #@! TO.P,U1,3*
G04 #@! TO.N,VDD*
X158100000Y-67520000D03*
G04 #@! TO.P,U1,4*
G04 #@! TO.N,GND*
X158100000Y-67020000D03*
G04 #@! TO.P,U1,5*
G04 #@! TO.N,Net-(J1-Pad3)*
X158100000Y-66520000D03*
G04 #@! TO.P,U1,6*
G04 #@! TO.N,Net-(J1-Pad2)*
X158100000Y-66020000D03*
G04 #@! TO.P,U1,7*
G04 #@! TO.N,VDD*
X158100000Y-65520000D03*
G04 #@! TO.P,U1,8*
G04 #@! TO.N,Net-(C5-Pad1)*
X158100000Y-65020000D03*
G04 #@! TO.P,U1,9*
G04 #@! TO.N,Net-(U1-Pad9)*
X158100000Y-64520000D03*
G04 #@! TO.P,U1,10*
G04 #@! TO.N,Net-(U1-Pad10)*
X158100000Y-64020000D03*
G04 #@! TO.P,U1,11*
G04 #@! TO.N,Net-(U1-Pad11)*
X158100000Y-63520000D03*
G04 #@! TO.P,U1,12*
G04 #@! TO.N,Net-(U1-Pad12)*
X158100000Y-63020000D03*
G04 #@! TO.P,U1,13*
G04 #@! TO.N,VDD*
X158100000Y-62520000D03*
G04 #@! TO.P,U1,14*
X158100000Y-62020000D03*
G04 #@! TO.P,U1,15*
G04 #@! TO.N,GND*
X158100000Y-61520000D03*
G04 #@! TO.P,U1,16*
X158100000Y-61020000D03*
D21*
G04 #@! TO.P,U1,17*
G04 #@! TO.N,Net-(U1-Pad17)*
X156150000Y-59070000D03*
G04 #@! TO.P,U1,18*
G04 #@! TO.N,Net-(U1-Pad18)*
X155650000Y-59070000D03*
G04 #@! TO.P,U1,19*
G04 #@! TO.N,Net-(U1-Pad19)*
X155150000Y-59070000D03*
G04 #@! TO.P,U1,20*
G04 #@! TO.N,Net-(U1-Pad20)*
X154650000Y-59070000D03*
G04 #@! TO.P,U1,21*
G04 #@! TO.N,Net-(U1-Pad21)*
X154150000Y-59070000D03*
G04 #@! TO.P,U1,22*
G04 #@! TO.N,Net-(P1-Pad4)*
X153650000Y-59070000D03*
G04 #@! TO.P,U1,23*
G04 #@! TO.N,Net-(U1-Pad23)*
X153150000Y-59070000D03*
G04 #@! TO.P,U1,24*
G04 #@! TO.N,Net-(U1-Pad24)*
X152650000Y-59070000D03*
G04 #@! TO.P,U1,25*
G04 #@! TO.N,Net-(P1-Pad2)*
X152150000Y-59070000D03*
G04 #@! TO.P,U1,26*
G04 #@! TO.N,Net-(U1-Pad26)*
X151650000Y-59070000D03*
G04 #@! TO.P,U1,27*
G04 #@! TO.N,Net-(U1-Pad27)*
X151150000Y-59070000D03*
G04 #@! TO.P,U1,28*
G04 #@! TO.N,Net-(U1-Pad28)*
X150650000Y-59070000D03*
G04 #@! TO.P,U1,29*
G04 #@! TO.N,Net-(U1-Pad29)*
X150150000Y-59070000D03*
G04 #@! TO.P,U1,30*
G04 #@! TO.N,VDD*
X149650000Y-59070000D03*
G04 #@! TO.P,U1,31*
G04 #@! TO.N,GND*
X149150000Y-59070000D03*
G04 #@! TO.P,U1,32*
G04 #@! TO.N,Net-(U1-Pad32)*
X148650000Y-59070000D03*
D20*
G04 #@! TO.P,U1,33*
G04 #@! TO.N,Net-(U1-Pad33)*
X146700000Y-61020000D03*
G04 #@! TO.P,U1,34*
G04 #@! TO.N,Net-(P1-Pad3)*
X146700000Y-61520000D03*
G04 #@! TO.P,U1,35*
G04 #@! TO.N,Net-(U1-Pad35)*
X146700000Y-62020000D03*
G04 #@! TO.P,U1,36*
G04 #@! TO.N,Net-(U1-Pad36)*
X146700000Y-62520000D03*
G04 #@! TO.P,U1,37*
G04 #@! TO.N,Net-(U1-Pad37)*
X146700000Y-63020000D03*
G04 #@! TO.P,U1,38*
G04 #@! TO.N,Net-(U1-Pad38)*
X146700000Y-63520000D03*
G04 #@! TO.P,U1,39*
G04 #@! TO.N,Net-(U1-Pad39)*
X146700000Y-64020000D03*
G04 #@! TO.P,U1,40*
G04 #@! TO.N,Net-(U1-Pad40)*
X146700000Y-64520000D03*
G04 #@! TO.P,U1,41*
G04 #@! TO.N,Net-(U1-Pad41)*
X146700000Y-65020000D03*
G04 #@! TO.P,U1,42*
G04 #@! TO.N,Net-(U1-Pad42)*
X146700000Y-65520000D03*
G04 #@! TO.P,U1,43*
G04 #@! TO.N,Net-(R2-Pad1)*
X146700000Y-66020000D03*
G04 #@! TO.P,U1,44*
G04 #@! TO.N,Net-(R1-Pad1)*
X146700000Y-66520000D03*
G04 #@! TO.P,U1,45*
G04 #@! TO.N,Net-(U1-Pad45)*
X146700000Y-67020000D03*
G04 #@! TO.P,U1,46*
G04 #@! TO.N,Net-(U1-Pad46)*
X146700000Y-67520000D03*
G04 #@! TO.P,U1,47*
G04 #@! TO.N,GND*
X146700000Y-68020000D03*
G04 #@! TO.P,U1,48*
G04 #@! TO.N,VDD*
X146700000Y-68520000D03*
D21*
G04 #@! TO.P,U1,49*
G04 #@! TO.N,Net-(U1-Pad49)*
X148650000Y-70470000D03*
G04 #@! TO.P,U1,50*
G04 #@! TO.N,Net-(U1-Pad50)*
X149150000Y-70470000D03*
G04 #@! TO.P,U1,51*
G04 #@! TO.N,Net-(U1-Pad51)*
X149650000Y-70470000D03*
G04 #@! TO.P,U1,52*
G04 #@! TO.N,Net-(U1-Pad52)*
X150150000Y-70470000D03*
G04 #@! TO.P,U1,53*
G04 #@! TO.N,Net-(U1-Pad53)*
X150650000Y-70470000D03*
G04 #@! TO.P,U1,54*
G04 #@! TO.N,Net-(U1-Pad54)*
X151150000Y-70470000D03*
G04 #@! TO.P,U1,55*
G04 #@! TO.N,Net-(U1-Pad55)*
X151650000Y-70470000D03*
G04 #@! TO.P,U1,56*
G04 #@! TO.N,Net-(U1-Pad56)*
X152150000Y-70470000D03*
G04 #@! TO.P,U1,57*
G04 #@! TO.N,Net-(J2-Pad2)*
X152650000Y-70470000D03*
G04 #@! TO.P,U1,58*
G04 #@! TO.N,Net-(J2-Pad3)*
X153150000Y-70470000D03*
G04 #@! TO.P,U1,59*
G04 #@! TO.N,Net-(J2-Pad4)*
X153650000Y-70470000D03*
G04 #@! TO.P,U1,60*
G04 #@! TO.N,Net-(J2-Pad5)*
X154150000Y-70470000D03*
G04 #@! TO.P,U1,61*
G04 #@! TO.N,Net-(J2-Pad6)*
X154650000Y-70470000D03*
G04 #@! TO.P,U1,62*
G04 #@! TO.N,Net-(J2-Pad7)*
X155150000Y-70470000D03*
G04 #@! TO.P,U1,63*
G04 #@! TO.N,Net-(J2-Pad8)*
X155650000Y-70470000D03*
G04 #@! TO.P,U1,64*
G04 #@! TO.N,Net-(J2-Pad9)*
X156150000Y-70470000D03*
G04 #@! TD*
D22*
G04 #@! TO.P,U2,1*
G04 #@! TO.N,Net-(C1-Pad1)*
X126365000Y-74820000D03*
G04 #@! TO.P,U2,2*
G04 #@! TO.N,GND*
X127635000Y-74820000D03*
G04 #@! TO.P,U2,3*
G04 #@! TO.N,Net-(U1-Pad53)*
X128905000Y-74820000D03*
G04 #@! TO.P,U2,4*
G04 #@! TO.N,Net-(U1-Pad55)*
X130175000Y-74820000D03*
G04 #@! TO.P,U2,5*
G04 #@! TO.N,Net-(U1-Pad54)*
X130175000Y-67420000D03*
G04 #@! TO.P,U2,6*
G04 #@! TO.N,VDD*
X128905000Y-67420000D03*
G04 #@! TO.P,U2,7*
G04 #@! TO.N,Net-(C3-Pad1)*
X127635000Y-67420000D03*
G04 #@! TO.P,U2,8*
G04 #@! TO.N,Net-(C1-Pad1)*
X126365000Y-67420000D03*
G04 #@! TD*
D23*
G04 #@! TO.N,Net-(C1-Pad1)*
X120650000Y-73660000D03*
X115570000Y-72390000D03*
G04 #@! TO.N,GND*
X166231700Y-73585700D03*
G04 #@! TO.N,Net-(C3-Pad1)*
X112723100Y-84607500D03*
X118871000Y-82618900D03*
G04 #@! TO.N,Net-(C5-Pad1)*
X177068800Y-72630100D03*
X160807500Y-72491500D03*
G04 #@! TO.N,Net-(J1-Pad2)*
X166886600Y-71674600D03*
X160300700Y-66020000D03*
G04 #@! TO.N,Net-(J1-Pad3)*
X165855800Y-71694900D03*
X160322100Y-67048300D03*
G04 #@! TO.N,Net-(R1-Pad1)*
X116106900Y-64973500D03*
X140347200Y-66520000D03*
G04 #@! TO.N,Net-(R2-Pad1)*
X114808800Y-79165900D03*
X136643100Y-65768600D03*
G04 #@! TD*
D24*
G04 #@! TO.N,Net-(C1-Pad1)*
X126365000Y-74820000D02*
X124350000Y-74820000D01*
X124350000Y-74820000D02*
X124350000Y-74337500D01*
X124350000Y-74337500D02*
X121920000Y-71907500D01*
X121920000Y-70332500D02*
X121920000Y-68580000D01*
X121920000Y-68580000D02*
X123080000Y-67420000D01*
X123080000Y-67420000D02*
X126365000Y-67420000D01*
X120650000Y-73660000D02*
X120650000Y-73177500D01*
X120650000Y-73177500D02*
X121920000Y-71907500D01*
X121920000Y-70332500D02*
X119862000Y-70332500D01*
X119862000Y-70332500D02*
X119380000Y-69850000D01*
X119380000Y-69850000D02*
X119380000Y-49530000D01*
X119380000Y-49530000D02*
X120650000Y-48260000D01*
X120650000Y-48260000D02*
X161290000Y-48260000D01*
X161290000Y-48260000D02*
X162560000Y-49530000D01*
X162560000Y-49530000D02*
X162560000Y-86360000D01*
X162560000Y-86360000D02*
X160020000Y-88900000D01*
X160020000Y-88900000D02*
X121920000Y-88900000D01*
X121920000Y-88900000D02*
X118110000Y-85090000D01*
X118110000Y-85090000D02*
X118110000Y-49530000D01*
X118110000Y-49530000D02*
X120650000Y-46990000D01*
X120650000Y-46990000D02*
X161290000Y-46990000D01*
X161290000Y-46990000D02*
X163830000Y-49530000D01*
X163830000Y-49530000D02*
X163830000Y-86360000D01*
X163830000Y-86360000D02*
X160020000Y-90170000D01*
X160020000Y-90170000D02*
X121920000Y-90170000D01*
X121920000Y-90170000D02*
X116840000Y-85090000D01*
X116840000Y-85090000D02*
X116840000Y-49530000D01*
X116840000Y-49530000D02*
X120650000Y-45720000D01*
X120650000Y-45720000D02*
X161290000Y-45720000D01*
X161290000Y-45720000D02*
X165100000Y-49530000D01*
X165100000Y-49530000D02*
X165100000Y-86360000D01*
X165100000Y-86360000D02*
X160020000Y-91440000D01*
X160020000Y-91440000D02*
X121920000Y-91440000D01*
X121920000Y-91440000D02*
X115570000Y-85090000D01*
X115570000Y-85090000D02*
X115570000Y-72390000D01*
G04 #@! TO.N,GND*
X158925300Y-69008500D02*
X158925300Y-74776400D01*
X158925300Y-74776400D02*
X159078900Y-74930000D01*
X158925300Y-67020000D02*
X158925300Y-69008500D01*
X158925300Y-69008500D02*
X146096000Y-69008500D01*
X146096000Y-69008500D02*
X145874700Y-68787200D01*
X145874700Y-68787200D02*
X145874700Y-68020000D01*
X146700000Y-68020000D02*
X145874700Y-68020000D01*
X149150000Y-59895300D02*
X149150000Y-60093100D01*
X149150000Y-60093100D02*
X150239100Y-61182200D01*
X150239100Y-61182200D02*
X157274700Y-61182200D01*
X149150000Y-59895300D02*
X147567200Y-59895300D01*
X147567200Y-59895300D02*
X147525300Y-59937200D01*
X157274700Y-61182200D02*
X157274700Y-61520000D01*
X157800000Y-61020000D02*
X157436900Y-61020000D01*
X157436900Y-61020000D02*
X157274700Y-61182200D01*
X147525300Y-59937200D02*
X135160300Y-59937200D01*
X147525300Y-68020000D02*
X147525300Y-59937200D01*
X149150000Y-59070000D02*
X149150000Y-59895300D01*
X146700000Y-68020000D02*
X147525300Y-68020000D01*
X134093200Y-84223400D02*
X153610800Y-84223400D01*
X153610800Y-84223400D02*
X154418700Y-83415500D01*
X154418700Y-83415500D02*
X154418700Y-83048100D01*
X128270000Y-82067500D02*
X130425900Y-84223400D01*
X130425900Y-84223400D02*
X134093200Y-84223400D01*
X134093200Y-84223400D02*
X134093200Y-81851100D01*
X134093200Y-81851100D02*
X135431300Y-80513000D01*
X135431300Y-80513000D02*
X135431300Y-77493800D01*
X135431300Y-77493800D02*
X134620000Y-76682500D01*
X127458700Y-80492500D02*
X127458700Y-81256200D01*
X127458700Y-81256200D02*
X128270000Y-82067500D01*
X124460000Y-80492500D02*
X127458700Y-80492500D01*
X127635000Y-74820000D02*
X127635000Y-76516000D01*
X127635000Y-76516000D02*
X127458700Y-76692300D01*
X127458700Y-76692300D02*
X127458700Y-80492500D01*
X179564600Y-73585700D02*
X166231700Y-73585700D01*
X135160300Y-59937200D02*
X131597500Y-63500000D01*
X135160300Y-59937200D02*
X132080000Y-56856900D01*
X132080000Y-56856900D02*
X132080000Y-56515000D01*
X159078900Y-74930000D02*
X159078900Y-78387900D01*
X159078900Y-78387900D02*
X155594000Y-81872800D01*
X159078900Y-74930000D02*
X159232500Y-74930000D01*
X155594000Y-83048100D02*
X155594000Y-81872800D01*
X155594000Y-83048100D02*
X154418700Y-83048100D01*
X158100000Y-67020000D02*
X158925300Y-67020000D01*
X179564600Y-73585700D02*
X179575300Y-73575000D01*
X179575300Y-73575000D02*
X179575300Y-69600000D01*
X180124700Y-74650000D02*
X180124700Y-74145800D01*
X180124700Y-74145800D02*
X179564600Y-73585700D01*
X178550000Y-69600000D02*
X179575300Y-69600000D01*
X181400000Y-74650000D02*
X180124700Y-74650000D01*
X158100000Y-61520000D02*
X157274700Y-61520000D01*
X158100000Y-61020000D02*
X157800000Y-61020000D01*
G04 #@! TO.N,VDD*
X128905000Y-67420000D02*
X128905000Y-68620300D01*
X128905000Y-68620300D02*
X128270000Y-69255300D01*
X128270000Y-69255300D02*
X128270000Y-80492500D01*
X130022500Y-63500000D02*
X128905000Y-64617500D01*
X128905000Y-64617500D02*
X128905000Y-67420000D01*
X146700000Y-68520000D02*
X156274700Y-68520000D01*
X156274700Y-68520000D02*
X157274700Y-67520000D01*
X158100000Y-67520000D02*
X157274700Y-67520000D01*
X157274700Y-65520000D02*
X157274700Y-67520000D01*
X157274700Y-62520000D02*
X157274700Y-65520000D01*
X157274700Y-65520000D02*
X158100000Y-65520000D01*
X158100000Y-62520000D02*
X157274700Y-62520000D01*
X134620000Y-78257500D02*
X134620000Y-79159900D01*
X134620000Y-79159900D02*
X132734000Y-81045900D01*
X130022500Y-63500000D02*
X126752300Y-60229800D01*
X126752300Y-60229800D02*
X126752300Y-57743900D01*
X126752300Y-57743900D02*
X127692300Y-56803900D01*
X157089600Y-60345700D02*
X158575600Y-60345700D01*
X158575600Y-60345700D02*
X158925300Y-60695400D01*
X158925300Y-60695400D02*
X158925300Y-62520000D01*
X149650000Y-59895300D02*
X150100400Y-60345700D01*
X150100400Y-60345700D02*
X157089600Y-60345700D01*
X157089600Y-60345700D02*
X157089600Y-58266500D01*
X157089600Y-58266500D02*
X149656500Y-50833400D01*
X149656500Y-50833400D02*
X127906300Y-50833400D01*
X127906300Y-50833400D02*
X126288300Y-52451400D01*
X126288300Y-52451400D02*
X126288300Y-55399900D01*
X126288300Y-55399900D02*
X127692300Y-56803900D01*
X127692300Y-56803900D02*
X129251100Y-56803900D01*
X129251100Y-56803900D02*
X129540000Y-56515000D01*
X149650000Y-59070000D02*
X149650000Y-59895300D01*
X132734000Y-81045900D02*
X128823400Y-81045900D01*
X128823400Y-81045900D02*
X128270000Y-80492500D01*
X132734000Y-81045900D02*
X132734000Y-81872800D01*
X132734000Y-83048100D02*
X132734000Y-81872800D01*
X158100000Y-62020000D02*
X158100000Y-62520000D01*
X158100000Y-62520000D02*
X158925300Y-62520000D01*
G04 #@! TO.N,Net-(C3-Pad1)*
X124460000Y-82067500D02*
X119422400Y-82067500D01*
X119422400Y-82067500D02*
X118871000Y-82618900D01*
X112723100Y-84607500D02*
X106680000Y-84607500D01*
X127635000Y-68620300D02*
X127034700Y-69220600D01*
X127034700Y-69220600D02*
X127034700Y-76479400D01*
X127034700Y-76479400D02*
X123648700Y-79865400D01*
X123648700Y-79865400D02*
X123648700Y-81256200D01*
X123648700Y-81256200D02*
X124460000Y-82067500D01*
X127635000Y-67420000D02*
X127635000Y-68620300D01*
G04 #@! TO.N,Net-(C5-Pad1)*
X158100000Y-65020000D02*
X160326600Y-65020000D01*
X160326600Y-65020000D02*
X161062400Y-65755800D01*
X161062400Y-65755800D02*
X161062400Y-72236600D01*
X161062400Y-72236600D02*
X160807500Y-72491500D01*
X160807500Y-72491500D02*
X160807500Y-74930000D01*
X178550000Y-72200000D02*
X177524700Y-72200000D01*
X177068800Y-72630100D02*
X177094600Y-72630100D01*
X177094600Y-72630100D02*
X177524700Y-72200000D01*
G04 #@! TO.N,Net-(D1-Pad2)*
X106680000Y-66827500D02*
X106680000Y-68580000D01*
X106680000Y-68580000D02*
X105410000Y-69850000D01*
X105410000Y-69850000D02*
X105410000Y-71120000D01*
X105410000Y-71120000D02*
X106172000Y-71882000D01*
X106172000Y-71882000D02*
X107950000Y-71882000D01*
G04 #@! TO.N,Net-(D1-Pad3)*
X109220000Y-77952500D02*
X109220000Y-76200000D01*
X109220000Y-76200000D02*
X110490000Y-74930000D01*
X110490000Y-74930000D02*
X110490000Y-73660000D01*
X110490000Y-73660000D02*
X109982000Y-73152000D01*
X109982000Y-73152000D02*
X107950000Y-73152000D01*
G04 #@! TO.N,Net-(D1-Pad4)*
X106680000Y-83032500D02*
X106680000Y-75327000D01*
X106680000Y-75327000D02*
X107585000Y-74422000D01*
X107585000Y-74422000D02*
X107950000Y-74422000D01*
G04 #@! TO.N,Net-(J1-Pad2)*
X158100000Y-66020000D02*
X160300700Y-66020000D01*
X166886600Y-71674600D02*
X177400100Y-71674600D01*
X177400100Y-71674600D02*
X177524700Y-71550000D01*
X178550000Y-71550000D02*
X177524700Y-71550000D01*
G04 #@! TO.N,Net-(J1-Pad3)*
X158100000Y-66520000D02*
X159752400Y-66520000D01*
X159752400Y-66520000D02*
X160280700Y-67048300D01*
X160280700Y-67048300D02*
X160322100Y-67048300D01*
X165855800Y-71694900D02*
X165855800Y-71639500D01*
X165855800Y-71639500D02*
X166595300Y-70900000D01*
X166595300Y-70900000D02*
X178550000Y-70900000D01*
G04 #@! TO.N,Net-(J2-Pad2)*
X152650000Y-70470000D02*
X152650000Y-71220000D01*
X152650000Y-71220000D02*
X152575000Y-71295000D01*
X152575000Y-71295000D02*
X152225000Y-71295000D01*
X152225000Y-71295000D02*
X149860000Y-73660000D01*
X149860000Y-73660000D02*
X144662000Y-73660000D01*
X144662000Y-73660000D02*
X135274000Y-83048100D01*
G04 #@! TO.N,Net-(J2-Pad3)*
X153150000Y-70470000D02*
X153150000Y-71640000D01*
X153150000Y-71640000D02*
X149860000Y-74930000D01*
X149860000Y-74930000D02*
X145932000Y-74930000D01*
X145932000Y-74930000D02*
X137814000Y-83048100D01*
G04 #@! TO.N,Net-(J2-Pad4)*
X153650000Y-70470000D02*
X153650000Y-72370000D01*
X153650000Y-72370000D02*
X153670000Y-72390000D01*
X153670000Y-72390000D02*
X149860000Y-76200000D01*
X149860000Y-76200000D02*
X147202000Y-76200000D01*
X147202000Y-76200000D02*
X140354000Y-83048100D01*
G04 #@! TO.N,Net-(J2-Pad5)*
X154150000Y-70470000D02*
X154150000Y-73180000D01*
X154150000Y-73180000D02*
X148590000Y-78740000D01*
X148590000Y-78740000D02*
X147202000Y-78740000D01*
X147202000Y-78740000D02*
X142894000Y-83048100D01*
G04 #@! TO.N,Net-(J2-Pad6)*
X154650000Y-70470000D02*
X154650000Y-73950000D01*
X154650000Y-73950000D02*
X148590000Y-80010000D01*
X148590000Y-80010000D02*
X145434000Y-83048100D01*
G04 #@! TO.N,Net-(J2-Pad7)*
X155150000Y-70470000D02*
X155150000Y-74720000D01*
X155150000Y-74720000D02*
X148824000Y-81045700D01*
X148824000Y-81045700D02*
X148824000Y-82198100D01*
X148824000Y-82198100D02*
X147974000Y-83048100D01*
G04 #@! TO.N,Net-(J2-Pad8)*
X155650000Y-70470000D02*
X155650000Y-75490000D01*
X155650000Y-75490000D02*
X150514000Y-80625700D01*
X150514000Y-80625700D02*
X150514000Y-83048100D01*
G04 #@! TO.N,Net-(J2-Pad9)*
X156150000Y-70470000D02*
X156150000Y-76260000D01*
X156150000Y-76260000D02*
X153054000Y-79355700D01*
X153054000Y-79355700D02*
X153054000Y-83048100D01*
G04 #@! TO.N,Net-(P1-Pad2)*
X129540000Y-55245000D02*
X129251100Y-54956100D01*
X129251100Y-54956100D02*
X127739100Y-54956100D01*
X127739100Y-54956100D02*
X126752100Y-53969100D01*
X126752100Y-53969100D02*
X126752100Y-52667500D01*
X126752100Y-52667500D02*
X128099300Y-51320300D01*
X128099300Y-51320300D02*
X149493600Y-51320300D01*
X149493600Y-51320300D02*
X156600400Y-58427100D01*
X156600400Y-58427100D02*
X156600400Y-59704700D01*
X156600400Y-59704700D02*
X156409800Y-59895300D01*
X156409800Y-59895300D02*
X152150000Y-59895300D01*
X152150000Y-59070000D02*
X152150000Y-59895300D01*
G04 #@! TO.N,Net-(P1-Pad3)*
X146700000Y-61520000D02*
X134917100Y-61520000D01*
X134917100Y-61520000D02*
X132085100Y-64352000D01*
X132085100Y-64352000D02*
X131113500Y-64352000D01*
X131113500Y-64352000D02*
X130810000Y-64048500D01*
X130810000Y-64048500D02*
X130810000Y-61816600D01*
X130810000Y-61816600D02*
X129927900Y-60934500D01*
X129927900Y-60934500D02*
X129927900Y-57397100D01*
X129927900Y-57397100D02*
X130810000Y-56515000D01*
G04 #@! TO.N,Net-(P1-Pad4)*
X153650000Y-59070000D02*
X153650000Y-58244700D01*
X153650000Y-58244700D02*
X147176000Y-51770700D01*
X147176000Y-51770700D02*
X130861000Y-51770700D01*
X130861000Y-51770700D02*
X129927900Y-52703800D01*
X129927900Y-52703800D02*
X129927900Y-54362900D01*
X129927900Y-54362900D02*
X130810000Y-55245000D01*
G04 #@! TO.N,Net-(R1-Pad1)*
X146700000Y-66520000D02*
X140347200Y-66520000D01*
X116106900Y-64973500D02*
X106959000Y-64973500D01*
X106959000Y-64973500D02*
X106680000Y-65252500D01*
G04 #@! TO.N,Net-(R2-Pad1)*
X146700000Y-66020000D02*
X140926600Y-66020000D01*
X140926600Y-66020000D02*
X140675200Y-65768600D01*
X140675200Y-65768600D02*
X136643100Y-65768600D01*
X109220000Y-79527500D02*
X109581600Y-79165900D01*
X109581600Y-79165900D02*
X114808800Y-79165900D01*
G04 #@! TO.N,Net-(U1-Pad53)*
X150650000Y-70470000D02*
X150650000Y-71295300D01*
X128905000Y-74820000D02*
X128905000Y-73619700D01*
X128905000Y-73619700D02*
X131229400Y-71295300D01*
X131229400Y-71295300D02*
X150650000Y-71295300D01*
G04 #@! TO.N,Net-(U1-Pad54)*
X151150000Y-70470000D02*
X151150000Y-69644700D01*
X130175000Y-67420000D02*
X130175000Y-68620300D01*
X130175000Y-68620300D02*
X131199400Y-69644700D01*
X131199400Y-69644700D02*
X151150000Y-69644700D01*
G04 #@! TO.N,Net-(U1-Pad55)*
X130175000Y-73619700D02*
X130962300Y-72832400D01*
X130962300Y-72832400D02*
X149955300Y-72832400D01*
X149955300Y-72832400D02*
X151650000Y-71137700D01*
X151650000Y-71137700D02*
X151650000Y-70470000D01*
X130175000Y-74820000D02*
X130175000Y-73619700D01*
G04 #@! TD*
M02*
