G04 #@! TF.GenerationSoftware,KiCad,Pcbnew,(5.0.2)-1*
G04 #@! TF.CreationDate,2019-02-28T20:38:06-05:00*
G04 #@! TF.ProjectId,CEC01,43454330-312e-46b6-9963-61645f706362,v0.1*
G04 #@! TF.SameCoordinates,Original*
G04 #@! TF.FileFunction,Soldermask,Top*
G04 #@! TF.FilePolarity,Negative*
%FSLAX46Y46*%
G04 Gerber Fmt 4.6, Leading zero omitted, Abs format (unit mm)*
G04 Created by KiCad (PCBNEW (5.0.2)-1) date 2/28/2019 8:38:06 PM*
%MOMM*%
%LPD*%
G01*
G04 APERTURE LIST*
%ADD10C,0.100000*%
G04 APERTURE END LIST*
D10*
G36*
X107059591Y-84123085D02*
X107093569Y-84133393D01*
X107124887Y-84150133D01*
X107152339Y-84172661D01*
X107174867Y-84200113D01*
X107191607Y-84231431D01*
X107201915Y-84265409D01*
X107206000Y-84306890D01*
X107206000Y-84908110D01*
X107201915Y-84949591D01*
X107191607Y-84983569D01*
X107174867Y-85014887D01*
X107152339Y-85042339D01*
X107124887Y-85064867D01*
X107093569Y-85081607D01*
X107059591Y-85091915D01*
X107018110Y-85096000D01*
X106341890Y-85096000D01*
X106300409Y-85091915D01*
X106266431Y-85081607D01*
X106235113Y-85064867D01*
X106207661Y-85042339D01*
X106185133Y-85014887D01*
X106168393Y-84983569D01*
X106158085Y-84949591D01*
X106154000Y-84908110D01*
X106154000Y-84306890D01*
X106158085Y-84265409D01*
X106168393Y-84231431D01*
X106185133Y-84200113D01*
X106207661Y-84172661D01*
X106235113Y-84150133D01*
X106266431Y-84133393D01*
X106300409Y-84123085D01*
X106341890Y-84119000D01*
X107018110Y-84119000D01*
X107059591Y-84123085D01*
X107059591Y-84123085D01*
G37*
G36*
X155704443Y-82153619D02*
X155770627Y-82160137D01*
X155883853Y-82194484D01*
X155940467Y-82211657D01*
X156079087Y-82285752D01*
X156096991Y-82295322D01*
X156117008Y-82311750D01*
X156234186Y-82407914D01*
X156311677Y-82502339D01*
X156346778Y-82545109D01*
X156356123Y-82562592D01*
X156430443Y-82701633D01*
X156430443Y-82701634D01*
X156481963Y-82871473D01*
X156499359Y-83048100D01*
X156481963Y-83224727D01*
X156466182Y-83276750D01*
X156430443Y-83394567D01*
X156401101Y-83449461D01*
X156346778Y-83551091D01*
X156317448Y-83586829D01*
X156234186Y-83688286D01*
X156132729Y-83771548D01*
X156096991Y-83800878D01*
X156096989Y-83800879D01*
X155940467Y-83884543D01*
X155883853Y-83901716D01*
X155770627Y-83936063D01*
X155704442Y-83942582D01*
X155638260Y-83949100D01*
X155549740Y-83949100D01*
X155483558Y-83942582D01*
X155417373Y-83936063D01*
X155304147Y-83901716D01*
X155247533Y-83884543D01*
X155091011Y-83800879D01*
X155091009Y-83800878D01*
X155055271Y-83771548D01*
X154953814Y-83688286D01*
X154870552Y-83586829D01*
X154841222Y-83551091D01*
X154786899Y-83449461D01*
X154757557Y-83394567D01*
X154721818Y-83276750D01*
X154706037Y-83224727D01*
X154688641Y-83048100D01*
X154706037Y-82871473D01*
X154757557Y-82701634D01*
X154757557Y-82701633D01*
X154831877Y-82562592D01*
X154841222Y-82545109D01*
X154876323Y-82502339D01*
X154953814Y-82407914D01*
X155070992Y-82311750D01*
X155091009Y-82295322D01*
X155108913Y-82285752D01*
X155247533Y-82211657D01*
X155304147Y-82194484D01*
X155417373Y-82160137D01*
X155483557Y-82153619D01*
X155549740Y-82147100D01*
X155638260Y-82147100D01*
X155704443Y-82153619D01*
X155704443Y-82153619D01*
G37*
G36*
X133635000Y-83949100D02*
X131833000Y-83949100D01*
X131833000Y-82147100D01*
X133635000Y-82147100D01*
X133635000Y-83949100D01*
X133635000Y-83949100D01*
G37*
G36*
X135384443Y-82153619D02*
X135450627Y-82160137D01*
X135563853Y-82194484D01*
X135620467Y-82211657D01*
X135759087Y-82285752D01*
X135776991Y-82295322D01*
X135797008Y-82311750D01*
X135914186Y-82407914D01*
X135991677Y-82502339D01*
X136026778Y-82545109D01*
X136036123Y-82562592D01*
X136110443Y-82701633D01*
X136110443Y-82701634D01*
X136161963Y-82871473D01*
X136179359Y-83048100D01*
X136161963Y-83224727D01*
X136146182Y-83276750D01*
X136110443Y-83394567D01*
X136081101Y-83449461D01*
X136026778Y-83551091D01*
X135997448Y-83586829D01*
X135914186Y-83688286D01*
X135812729Y-83771548D01*
X135776991Y-83800878D01*
X135776989Y-83800879D01*
X135620467Y-83884543D01*
X135563853Y-83901716D01*
X135450627Y-83936063D01*
X135384442Y-83942582D01*
X135318260Y-83949100D01*
X135229740Y-83949100D01*
X135163558Y-83942582D01*
X135097373Y-83936063D01*
X134984147Y-83901716D01*
X134927533Y-83884543D01*
X134771011Y-83800879D01*
X134771009Y-83800878D01*
X134735271Y-83771548D01*
X134633814Y-83688286D01*
X134550552Y-83586829D01*
X134521222Y-83551091D01*
X134466899Y-83449461D01*
X134437557Y-83394567D01*
X134401818Y-83276750D01*
X134386037Y-83224727D01*
X134368641Y-83048100D01*
X134386037Y-82871473D01*
X134437557Y-82701634D01*
X134437557Y-82701633D01*
X134511877Y-82562592D01*
X134521222Y-82545109D01*
X134556323Y-82502339D01*
X134633814Y-82407914D01*
X134750992Y-82311750D01*
X134771009Y-82295322D01*
X134788913Y-82285752D01*
X134927533Y-82211657D01*
X134984147Y-82194484D01*
X135097373Y-82160137D01*
X135163557Y-82153619D01*
X135229740Y-82147100D01*
X135318260Y-82147100D01*
X135384443Y-82153619D01*
X135384443Y-82153619D01*
G37*
G36*
X137924443Y-82153619D02*
X137990627Y-82160137D01*
X138103853Y-82194484D01*
X138160467Y-82211657D01*
X138299087Y-82285752D01*
X138316991Y-82295322D01*
X138337008Y-82311750D01*
X138454186Y-82407914D01*
X138531677Y-82502339D01*
X138566778Y-82545109D01*
X138576123Y-82562592D01*
X138650443Y-82701633D01*
X138650443Y-82701634D01*
X138701963Y-82871473D01*
X138719359Y-83048100D01*
X138701963Y-83224727D01*
X138686182Y-83276750D01*
X138650443Y-83394567D01*
X138621101Y-83449461D01*
X138566778Y-83551091D01*
X138537448Y-83586829D01*
X138454186Y-83688286D01*
X138352729Y-83771548D01*
X138316991Y-83800878D01*
X138316989Y-83800879D01*
X138160467Y-83884543D01*
X138103853Y-83901716D01*
X137990627Y-83936063D01*
X137924442Y-83942582D01*
X137858260Y-83949100D01*
X137769740Y-83949100D01*
X137703558Y-83942582D01*
X137637373Y-83936063D01*
X137524147Y-83901716D01*
X137467533Y-83884543D01*
X137311011Y-83800879D01*
X137311009Y-83800878D01*
X137275271Y-83771548D01*
X137173814Y-83688286D01*
X137090552Y-83586829D01*
X137061222Y-83551091D01*
X137006899Y-83449461D01*
X136977557Y-83394567D01*
X136941818Y-83276750D01*
X136926037Y-83224727D01*
X136908641Y-83048100D01*
X136926037Y-82871473D01*
X136977557Y-82701634D01*
X136977557Y-82701633D01*
X137051877Y-82562592D01*
X137061222Y-82545109D01*
X137096323Y-82502339D01*
X137173814Y-82407914D01*
X137290992Y-82311750D01*
X137311009Y-82295322D01*
X137328913Y-82285752D01*
X137467533Y-82211657D01*
X137524147Y-82194484D01*
X137637373Y-82160137D01*
X137703557Y-82153619D01*
X137769740Y-82147100D01*
X137858260Y-82147100D01*
X137924443Y-82153619D01*
X137924443Y-82153619D01*
G37*
G36*
X140464443Y-82153619D02*
X140530627Y-82160137D01*
X140643853Y-82194484D01*
X140700467Y-82211657D01*
X140839087Y-82285752D01*
X140856991Y-82295322D01*
X140877008Y-82311750D01*
X140994186Y-82407914D01*
X141071677Y-82502339D01*
X141106778Y-82545109D01*
X141116123Y-82562592D01*
X141190443Y-82701633D01*
X141190443Y-82701634D01*
X141241963Y-82871473D01*
X141259359Y-83048100D01*
X141241963Y-83224727D01*
X141226182Y-83276750D01*
X141190443Y-83394567D01*
X141161101Y-83449461D01*
X141106778Y-83551091D01*
X141077448Y-83586829D01*
X140994186Y-83688286D01*
X140892729Y-83771548D01*
X140856991Y-83800878D01*
X140856989Y-83800879D01*
X140700467Y-83884543D01*
X140643853Y-83901716D01*
X140530627Y-83936063D01*
X140464442Y-83942582D01*
X140398260Y-83949100D01*
X140309740Y-83949100D01*
X140243558Y-83942582D01*
X140177373Y-83936063D01*
X140064147Y-83901716D01*
X140007533Y-83884543D01*
X139851011Y-83800879D01*
X139851009Y-83800878D01*
X139815271Y-83771548D01*
X139713814Y-83688286D01*
X139630552Y-83586829D01*
X139601222Y-83551091D01*
X139546899Y-83449461D01*
X139517557Y-83394567D01*
X139481818Y-83276750D01*
X139466037Y-83224727D01*
X139448641Y-83048100D01*
X139466037Y-82871473D01*
X139517557Y-82701634D01*
X139517557Y-82701633D01*
X139591877Y-82562592D01*
X139601222Y-82545109D01*
X139636323Y-82502339D01*
X139713814Y-82407914D01*
X139830992Y-82311750D01*
X139851009Y-82295322D01*
X139868913Y-82285752D01*
X140007533Y-82211657D01*
X140064147Y-82194484D01*
X140177373Y-82160137D01*
X140243557Y-82153619D01*
X140309740Y-82147100D01*
X140398260Y-82147100D01*
X140464443Y-82153619D01*
X140464443Y-82153619D01*
G37*
G36*
X145544443Y-82153619D02*
X145610627Y-82160137D01*
X145723853Y-82194484D01*
X145780467Y-82211657D01*
X145919087Y-82285752D01*
X145936991Y-82295322D01*
X145957008Y-82311750D01*
X146074186Y-82407914D01*
X146151677Y-82502339D01*
X146186778Y-82545109D01*
X146196123Y-82562592D01*
X146270443Y-82701633D01*
X146270443Y-82701634D01*
X146321963Y-82871473D01*
X146339359Y-83048100D01*
X146321963Y-83224727D01*
X146306182Y-83276750D01*
X146270443Y-83394567D01*
X146241101Y-83449461D01*
X146186778Y-83551091D01*
X146157448Y-83586829D01*
X146074186Y-83688286D01*
X145972729Y-83771548D01*
X145936991Y-83800878D01*
X145936989Y-83800879D01*
X145780467Y-83884543D01*
X145723853Y-83901716D01*
X145610627Y-83936063D01*
X145544442Y-83942582D01*
X145478260Y-83949100D01*
X145389740Y-83949100D01*
X145323558Y-83942582D01*
X145257373Y-83936063D01*
X145144147Y-83901716D01*
X145087533Y-83884543D01*
X144931011Y-83800879D01*
X144931009Y-83800878D01*
X144895271Y-83771548D01*
X144793814Y-83688286D01*
X144710552Y-83586829D01*
X144681222Y-83551091D01*
X144626899Y-83449461D01*
X144597557Y-83394567D01*
X144561818Y-83276750D01*
X144546037Y-83224727D01*
X144528641Y-83048100D01*
X144546037Y-82871473D01*
X144597557Y-82701634D01*
X144597557Y-82701633D01*
X144671877Y-82562592D01*
X144681222Y-82545109D01*
X144716323Y-82502339D01*
X144793814Y-82407914D01*
X144910992Y-82311750D01*
X144931009Y-82295322D01*
X144948913Y-82285752D01*
X145087533Y-82211657D01*
X145144147Y-82194484D01*
X145257373Y-82160137D01*
X145323557Y-82153619D01*
X145389740Y-82147100D01*
X145478260Y-82147100D01*
X145544443Y-82153619D01*
X145544443Y-82153619D01*
G37*
G36*
X148084443Y-82153619D02*
X148150627Y-82160137D01*
X148263853Y-82194484D01*
X148320467Y-82211657D01*
X148459087Y-82285752D01*
X148476991Y-82295322D01*
X148497008Y-82311750D01*
X148614186Y-82407914D01*
X148691677Y-82502339D01*
X148726778Y-82545109D01*
X148736123Y-82562592D01*
X148810443Y-82701633D01*
X148810443Y-82701634D01*
X148861963Y-82871473D01*
X148879359Y-83048100D01*
X148861963Y-83224727D01*
X148846182Y-83276750D01*
X148810443Y-83394567D01*
X148781101Y-83449461D01*
X148726778Y-83551091D01*
X148697448Y-83586829D01*
X148614186Y-83688286D01*
X148512729Y-83771548D01*
X148476991Y-83800878D01*
X148476989Y-83800879D01*
X148320467Y-83884543D01*
X148263853Y-83901716D01*
X148150627Y-83936063D01*
X148084442Y-83942582D01*
X148018260Y-83949100D01*
X147929740Y-83949100D01*
X147863558Y-83942582D01*
X147797373Y-83936063D01*
X147684147Y-83901716D01*
X147627533Y-83884543D01*
X147471011Y-83800879D01*
X147471009Y-83800878D01*
X147435271Y-83771548D01*
X147333814Y-83688286D01*
X147250552Y-83586829D01*
X147221222Y-83551091D01*
X147166899Y-83449461D01*
X147137557Y-83394567D01*
X147101818Y-83276750D01*
X147086037Y-83224727D01*
X147068641Y-83048100D01*
X147086037Y-82871473D01*
X147137557Y-82701634D01*
X147137557Y-82701633D01*
X147211877Y-82562592D01*
X147221222Y-82545109D01*
X147256323Y-82502339D01*
X147333814Y-82407914D01*
X147450992Y-82311750D01*
X147471009Y-82295322D01*
X147488913Y-82285752D01*
X147627533Y-82211657D01*
X147684147Y-82194484D01*
X147797373Y-82160137D01*
X147863557Y-82153619D01*
X147929740Y-82147100D01*
X148018260Y-82147100D01*
X148084443Y-82153619D01*
X148084443Y-82153619D01*
G37*
G36*
X150624443Y-82153619D02*
X150690627Y-82160137D01*
X150803853Y-82194484D01*
X150860467Y-82211657D01*
X150999087Y-82285752D01*
X151016991Y-82295322D01*
X151037008Y-82311750D01*
X151154186Y-82407914D01*
X151231677Y-82502339D01*
X151266778Y-82545109D01*
X151276123Y-82562592D01*
X151350443Y-82701633D01*
X151350443Y-82701634D01*
X151401963Y-82871473D01*
X151419359Y-83048100D01*
X151401963Y-83224727D01*
X151386182Y-83276750D01*
X151350443Y-83394567D01*
X151321101Y-83449461D01*
X151266778Y-83551091D01*
X151237448Y-83586829D01*
X151154186Y-83688286D01*
X151052729Y-83771548D01*
X151016991Y-83800878D01*
X151016989Y-83800879D01*
X150860467Y-83884543D01*
X150803853Y-83901716D01*
X150690627Y-83936063D01*
X150624442Y-83942582D01*
X150558260Y-83949100D01*
X150469740Y-83949100D01*
X150403558Y-83942582D01*
X150337373Y-83936063D01*
X150224147Y-83901716D01*
X150167533Y-83884543D01*
X150011011Y-83800879D01*
X150011009Y-83800878D01*
X149975271Y-83771548D01*
X149873814Y-83688286D01*
X149790552Y-83586829D01*
X149761222Y-83551091D01*
X149706899Y-83449461D01*
X149677557Y-83394567D01*
X149641818Y-83276750D01*
X149626037Y-83224727D01*
X149608641Y-83048100D01*
X149626037Y-82871473D01*
X149677557Y-82701634D01*
X149677557Y-82701633D01*
X149751877Y-82562592D01*
X149761222Y-82545109D01*
X149796323Y-82502339D01*
X149873814Y-82407914D01*
X149990992Y-82311750D01*
X150011009Y-82295322D01*
X150028913Y-82285752D01*
X150167533Y-82211657D01*
X150224147Y-82194484D01*
X150337373Y-82160137D01*
X150403557Y-82153619D01*
X150469740Y-82147100D01*
X150558260Y-82147100D01*
X150624443Y-82153619D01*
X150624443Y-82153619D01*
G37*
G36*
X153164443Y-82153619D02*
X153230627Y-82160137D01*
X153343853Y-82194484D01*
X153400467Y-82211657D01*
X153539087Y-82285752D01*
X153556991Y-82295322D01*
X153577008Y-82311750D01*
X153694186Y-82407914D01*
X153771677Y-82502339D01*
X153806778Y-82545109D01*
X153816123Y-82562592D01*
X153890443Y-82701633D01*
X153890443Y-82701634D01*
X153941963Y-82871473D01*
X153959359Y-83048100D01*
X153941963Y-83224727D01*
X153926182Y-83276750D01*
X153890443Y-83394567D01*
X153861101Y-83449461D01*
X153806778Y-83551091D01*
X153777448Y-83586829D01*
X153694186Y-83688286D01*
X153592729Y-83771548D01*
X153556991Y-83800878D01*
X153556989Y-83800879D01*
X153400467Y-83884543D01*
X153343853Y-83901716D01*
X153230627Y-83936063D01*
X153164442Y-83942582D01*
X153098260Y-83949100D01*
X153009740Y-83949100D01*
X152943558Y-83942582D01*
X152877373Y-83936063D01*
X152764147Y-83901716D01*
X152707533Y-83884543D01*
X152551011Y-83800879D01*
X152551009Y-83800878D01*
X152515271Y-83771548D01*
X152413814Y-83688286D01*
X152330552Y-83586829D01*
X152301222Y-83551091D01*
X152246899Y-83449461D01*
X152217557Y-83394567D01*
X152181818Y-83276750D01*
X152166037Y-83224727D01*
X152148641Y-83048100D01*
X152166037Y-82871473D01*
X152217557Y-82701634D01*
X152217557Y-82701633D01*
X152291877Y-82562592D01*
X152301222Y-82545109D01*
X152336323Y-82502339D01*
X152413814Y-82407914D01*
X152530992Y-82311750D01*
X152551009Y-82295322D01*
X152568913Y-82285752D01*
X152707533Y-82211657D01*
X152764147Y-82194484D01*
X152877373Y-82160137D01*
X152943557Y-82153619D01*
X153009740Y-82147100D01*
X153098260Y-82147100D01*
X153164443Y-82153619D01*
X153164443Y-82153619D01*
G37*
G36*
X143004443Y-82153619D02*
X143070627Y-82160137D01*
X143183853Y-82194484D01*
X143240467Y-82211657D01*
X143379087Y-82285752D01*
X143396991Y-82295322D01*
X143417008Y-82311750D01*
X143534186Y-82407914D01*
X143611677Y-82502339D01*
X143646778Y-82545109D01*
X143656123Y-82562592D01*
X143730443Y-82701633D01*
X143730443Y-82701634D01*
X143781963Y-82871473D01*
X143799359Y-83048100D01*
X143781963Y-83224727D01*
X143766182Y-83276750D01*
X143730443Y-83394567D01*
X143701101Y-83449461D01*
X143646778Y-83551091D01*
X143617448Y-83586829D01*
X143534186Y-83688286D01*
X143432729Y-83771548D01*
X143396991Y-83800878D01*
X143396989Y-83800879D01*
X143240467Y-83884543D01*
X143183853Y-83901716D01*
X143070627Y-83936063D01*
X143004442Y-83942582D01*
X142938260Y-83949100D01*
X142849740Y-83949100D01*
X142783558Y-83942582D01*
X142717373Y-83936063D01*
X142604147Y-83901716D01*
X142547533Y-83884543D01*
X142391011Y-83800879D01*
X142391009Y-83800878D01*
X142355271Y-83771548D01*
X142253814Y-83688286D01*
X142170552Y-83586829D01*
X142141222Y-83551091D01*
X142086899Y-83449461D01*
X142057557Y-83394567D01*
X142021818Y-83276750D01*
X142006037Y-83224727D01*
X141988641Y-83048100D01*
X142006037Y-82871473D01*
X142057557Y-82701634D01*
X142057557Y-82701633D01*
X142131877Y-82562592D01*
X142141222Y-82545109D01*
X142176323Y-82502339D01*
X142253814Y-82407914D01*
X142370992Y-82311750D01*
X142391009Y-82295322D01*
X142408913Y-82285752D01*
X142547533Y-82211657D01*
X142604147Y-82194484D01*
X142717373Y-82160137D01*
X142783557Y-82153619D01*
X142849740Y-82147100D01*
X142938260Y-82147100D01*
X143004443Y-82153619D01*
X143004443Y-82153619D01*
G37*
G36*
X107059591Y-82548085D02*
X107093569Y-82558393D01*
X107124887Y-82575133D01*
X107152339Y-82597661D01*
X107174867Y-82625113D01*
X107191607Y-82656431D01*
X107201915Y-82690409D01*
X107206000Y-82731890D01*
X107206000Y-83333110D01*
X107201915Y-83374591D01*
X107191607Y-83408569D01*
X107174867Y-83439887D01*
X107152339Y-83467339D01*
X107124887Y-83489867D01*
X107093569Y-83506607D01*
X107059591Y-83516915D01*
X107018110Y-83521000D01*
X106341890Y-83521000D01*
X106300409Y-83516915D01*
X106266431Y-83506607D01*
X106235113Y-83489867D01*
X106207661Y-83467339D01*
X106185133Y-83439887D01*
X106168393Y-83408569D01*
X106158085Y-83374591D01*
X106154000Y-83333110D01*
X106154000Y-82731890D01*
X106158085Y-82690409D01*
X106168393Y-82656431D01*
X106185133Y-82625113D01*
X106207661Y-82597661D01*
X106235113Y-82575133D01*
X106266431Y-82558393D01*
X106300409Y-82548085D01*
X106341890Y-82544000D01*
X107018110Y-82544000D01*
X107059591Y-82548085D01*
X107059591Y-82548085D01*
G37*
G36*
X124839591Y-81583085D02*
X124873569Y-81593393D01*
X124904887Y-81610133D01*
X124932339Y-81632661D01*
X124954867Y-81660113D01*
X124971607Y-81691431D01*
X124981915Y-81725409D01*
X124986000Y-81766890D01*
X124986000Y-82368110D01*
X124981915Y-82409591D01*
X124971607Y-82443569D01*
X124954867Y-82474887D01*
X124932339Y-82502339D01*
X124904887Y-82524867D01*
X124873569Y-82541607D01*
X124839591Y-82551915D01*
X124798110Y-82556000D01*
X124121890Y-82556000D01*
X124080409Y-82551915D01*
X124046431Y-82541607D01*
X124015113Y-82524867D01*
X123987661Y-82502339D01*
X123965133Y-82474887D01*
X123948393Y-82443569D01*
X123938085Y-82409591D01*
X123934000Y-82368110D01*
X123934000Y-81766890D01*
X123938085Y-81725409D01*
X123948393Y-81691431D01*
X123965133Y-81660113D01*
X123987661Y-81632661D01*
X124015113Y-81610133D01*
X124046431Y-81593393D01*
X124080409Y-81583085D01*
X124121890Y-81579000D01*
X124798110Y-81579000D01*
X124839591Y-81583085D01*
X124839591Y-81583085D01*
G37*
G36*
X128649591Y-81583085D02*
X128683569Y-81593393D01*
X128714887Y-81610133D01*
X128742339Y-81632661D01*
X128764867Y-81660113D01*
X128781607Y-81691431D01*
X128791915Y-81725409D01*
X128796000Y-81766890D01*
X128796000Y-82368110D01*
X128791915Y-82409591D01*
X128781607Y-82443569D01*
X128764867Y-82474887D01*
X128742339Y-82502339D01*
X128714887Y-82524867D01*
X128683569Y-82541607D01*
X128649591Y-82551915D01*
X128608110Y-82556000D01*
X127931890Y-82556000D01*
X127890409Y-82551915D01*
X127856431Y-82541607D01*
X127825113Y-82524867D01*
X127797661Y-82502339D01*
X127775133Y-82474887D01*
X127758393Y-82443569D01*
X127748085Y-82409591D01*
X127744000Y-82368110D01*
X127744000Y-81766890D01*
X127748085Y-81725409D01*
X127758393Y-81691431D01*
X127775133Y-81660113D01*
X127797661Y-81632661D01*
X127825113Y-81610133D01*
X127856431Y-81593393D01*
X127890409Y-81583085D01*
X127931890Y-81579000D01*
X128608110Y-81579000D01*
X128649591Y-81583085D01*
X128649591Y-81583085D01*
G37*
G36*
X124839591Y-80008085D02*
X124873569Y-80018393D01*
X124904887Y-80035133D01*
X124932339Y-80057661D01*
X124954867Y-80085113D01*
X124971607Y-80116431D01*
X124981915Y-80150409D01*
X124986000Y-80191890D01*
X124986000Y-80793110D01*
X124981915Y-80834591D01*
X124971607Y-80868569D01*
X124954867Y-80899887D01*
X124932339Y-80927339D01*
X124904887Y-80949867D01*
X124873569Y-80966607D01*
X124839591Y-80976915D01*
X124798110Y-80981000D01*
X124121890Y-80981000D01*
X124080409Y-80976915D01*
X124046431Y-80966607D01*
X124015113Y-80949867D01*
X123987661Y-80927339D01*
X123965133Y-80899887D01*
X123948393Y-80868569D01*
X123938085Y-80834591D01*
X123934000Y-80793110D01*
X123934000Y-80191890D01*
X123938085Y-80150409D01*
X123948393Y-80116431D01*
X123965133Y-80085113D01*
X123987661Y-80057661D01*
X124015113Y-80035133D01*
X124046431Y-80018393D01*
X124080409Y-80008085D01*
X124121890Y-80004000D01*
X124798110Y-80004000D01*
X124839591Y-80008085D01*
X124839591Y-80008085D01*
G37*
G36*
X128649591Y-80008085D02*
X128683569Y-80018393D01*
X128714887Y-80035133D01*
X128742339Y-80057661D01*
X128764867Y-80085113D01*
X128781607Y-80116431D01*
X128791915Y-80150409D01*
X128796000Y-80191890D01*
X128796000Y-80793110D01*
X128791915Y-80834591D01*
X128781607Y-80868569D01*
X128764867Y-80899887D01*
X128742339Y-80927339D01*
X128714887Y-80949867D01*
X128683569Y-80966607D01*
X128649591Y-80976915D01*
X128608110Y-80981000D01*
X127931890Y-80981000D01*
X127890409Y-80976915D01*
X127856431Y-80966607D01*
X127825113Y-80949867D01*
X127797661Y-80927339D01*
X127775133Y-80899887D01*
X127758393Y-80868569D01*
X127748085Y-80834591D01*
X127744000Y-80793110D01*
X127744000Y-80191890D01*
X127748085Y-80150409D01*
X127758393Y-80116431D01*
X127775133Y-80085113D01*
X127797661Y-80057661D01*
X127825113Y-80035133D01*
X127856431Y-80018393D01*
X127890409Y-80008085D01*
X127931890Y-80004000D01*
X128608110Y-80004000D01*
X128649591Y-80008085D01*
X128649591Y-80008085D01*
G37*
G36*
X109599591Y-79043085D02*
X109633569Y-79053393D01*
X109664887Y-79070133D01*
X109692339Y-79092661D01*
X109714867Y-79120113D01*
X109731607Y-79151431D01*
X109741915Y-79185409D01*
X109746000Y-79226890D01*
X109746000Y-79828110D01*
X109741915Y-79869591D01*
X109731607Y-79903569D01*
X109714867Y-79934887D01*
X109692339Y-79962339D01*
X109664887Y-79984867D01*
X109633569Y-80001607D01*
X109599591Y-80011915D01*
X109558110Y-80016000D01*
X108881890Y-80016000D01*
X108840409Y-80011915D01*
X108806431Y-80001607D01*
X108775113Y-79984867D01*
X108747661Y-79962339D01*
X108725133Y-79934887D01*
X108708393Y-79903569D01*
X108698085Y-79869591D01*
X108694000Y-79828110D01*
X108694000Y-79226890D01*
X108698085Y-79185409D01*
X108708393Y-79151431D01*
X108725133Y-79120113D01*
X108747661Y-79092661D01*
X108775113Y-79070133D01*
X108806431Y-79053393D01*
X108840409Y-79043085D01*
X108881890Y-79039000D01*
X109558110Y-79039000D01*
X109599591Y-79043085D01*
X109599591Y-79043085D01*
G37*
G36*
X134999591Y-77773085D02*
X135033569Y-77783393D01*
X135064887Y-77800133D01*
X135092339Y-77822661D01*
X135114867Y-77850113D01*
X135131607Y-77881431D01*
X135141915Y-77915409D01*
X135146000Y-77956890D01*
X135146000Y-78558110D01*
X135141915Y-78599591D01*
X135131607Y-78633569D01*
X135114867Y-78664887D01*
X135092339Y-78692339D01*
X135064887Y-78714867D01*
X135033569Y-78731607D01*
X134999591Y-78741915D01*
X134958110Y-78746000D01*
X134281890Y-78746000D01*
X134240409Y-78741915D01*
X134206431Y-78731607D01*
X134175113Y-78714867D01*
X134147661Y-78692339D01*
X134125133Y-78664887D01*
X134108393Y-78633569D01*
X134098085Y-78599591D01*
X134094000Y-78558110D01*
X134094000Y-77956890D01*
X134098085Y-77915409D01*
X134108393Y-77881431D01*
X134125133Y-77850113D01*
X134147661Y-77822661D01*
X134175113Y-77800133D01*
X134206431Y-77783393D01*
X134240409Y-77773085D01*
X134281890Y-77769000D01*
X134958110Y-77769000D01*
X134999591Y-77773085D01*
X134999591Y-77773085D01*
G37*
G36*
X109599591Y-77468085D02*
X109633569Y-77478393D01*
X109664887Y-77495133D01*
X109692339Y-77517661D01*
X109714867Y-77545113D01*
X109731607Y-77576431D01*
X109741915Y-77610409D01*
X109746000Y-77651890D01*
X109746000Y-78253110D01*
X109741915Y-78294591D01*
X109731607Y-78328569D01*
X109714867Y-78359887D01*
X109692339Y-78387339D01*
X109664887Y-78409867D01*
X109633569Y-78426607D01*
X109599591Y-78436915D01*
X109558110Y-78441000D01*
X108881890Y-78441000D01*
X108840409Y-78436915D01*
X108806431Y-78426607D01*
X108775113Y-78409867D01*
X108747661Y-78387339D01*
X108725133Y-78359887D01*
X108708393Y-78328569D01*
X108698085Y-78294591D01*
X108694000Y-78253110D01*
X108694000Y-77651890D01*
X108698085Y-77610409D01*
X108708393Y-77576431D01*
X108725133Y-77545113D01*
X108747661Y-77517661D01*
X108775113Y-77495133D01*
X108806431Y-77478393D01*
X108840409Y-77468085D01*
X108881890Y-77464000D01*
X109558110Y-77464000D01*
X109599591Y-77468085D01*
X109599591Y-77468085D01*
G37*
G36*
X134999591Y-76198085D02*
X135033569Y-76208393D01*
X135064887Y-76225133D01*
X135092339Y-76247661D01*
X135114867Y-76275113D01*
X135131607Y-76306431D01*
X135141915Y-76340409D01*
X135146000Y-76381890D01*
X135146000Y-76983110D01*
X135141915Y-77024591D01*
X135131607Y-77058569D01*
X135114867Y-77089887D01*
X135092339Y-77117339D01*
X135064887Y-77139867D01*
X135033569Y-77156607D01*
X134999591Y-77166915D01*
X134958110Y-77171000D01*
X134281890Y-77171000D01*
X134240409Y-77166915D01*
X134206431Y-77156607D01*
X134175113Y-77139867D01*
X134147661Y-77117339D01*
X134125133Y-77089887D01*
X134108393Y-77058569D01*
X134098085Y-77024591D01*
X134094000Y-76983110D01*
X134094000Y-76381890D01*
X134098085Y-76340409D01*
X134108393Y-76306431D01*
X134125133Y-76275113D01*
X134147661Y-76247661D01*
X134175113Y-76225133D01*
X134206431Y-76208393D01*
X134240409Y-76198085D01*
X134281890Y-76194000D01*
X134958110Y-76194000D01*
X134999591Y-76198085D01*
X134999591Y-76198085D01*
G37*
G36*
X182401000Y-75851000D02*
X180399000Y-75851000D01*
X180399000Y-73449000D01*
X182401000Y-73449000D01*
X182401000Y-75851000D01*
X182401000Y-75851000D01*
G37*
G36*
X130501000Y-75746000D02*
X129849000Y-75746000D01*
X129849000Y-73894000D01*
X130501000Y-73894000D01*
X130501000Y-75746000D01*
X130501000Y-75746000D01*
G37*
G36*
X126691000Y-75746000D02*
X126039000Y-75746000D01*
X126039000Y-73894000D01*
X126691000Y-73894000D01*
X126691000Y-75746000D01*
X126691000Y-75746000D01*
G37*
G36*
X127961000Y-75746000D02*
X127309000Y-75746000D01*
X127309000Y-73894000D01*
X127961000Y-73894000D01*
X127961000Y-75746000D01*
X127961000Y-75746000D01*
G37*
G36*
X129231000Y-75746000D02*
X128579000Y-75746000D01*
X128579000Y-73894000D01*
X129231000Y-73894000D01*
X129231000Y-75746000D01*
X129231000Y-75746000D01*
G37*
G36*
X161149591Y-74408085D02*
X161183569Y-74418393D01*
X161214887Y-74435133D01*
X161242339Y-74457661D01*
X161264867Y-74485113D01*
X161281607Y-74516431D01*
X161291915Y-74550409D01*
X161296000Y-74591890D01*
X161296000Y-75268110D01*
X161291915Y-75309591D01*
X161281607Y-75343569D01*
X161264867Y-75374887D01*
X161242339Y-75402339D01*
X161214887Y-75424867D01*
X161183569Y-75441607D01*
X161149591Y-75451915D01*
X161108110Y-75456000D01*
X160506890Y-75456000D01*
X160465409Y-75451915D01*
X160431431Y-75441607D01*
X160400113Y-75424867D01*
X160372661Y-75402339D01*
X160350133Y-75374887D01*
X160333393Y-75343569D01*
X160323085Y-75309591D01*
X160319000Y-75268110D01*
X160319000Y-74591890D01*
X160323085Y-74550409D01*
X160333393Y-74516431D01*
X160350133Y-74485113D01*
X160372661Y-74457661D01*
X160400113Y-74435133D01*
X160431431Y-74418393D01*
X160465409Y-74408085D01*
X160506890Y-74404000D01*
X161108110Y-74404000D01*
X161149591Y-74408085D01*
X161149591Y-74408085D01*
G37*
G36*
X159574591Y-74408085D02*
X159608569Y-74418393D01*
X159639887Y-74435133D01*
X159667339Y-74457661D01*
X159689867Y-74485113D01*
X159706607Y-74516431D01*
X159716915Y-74550409D01*
X159721000Y-74591890D01*
X159721000Y-75268110D01*
X159716915Y-75309591D01*
X159706607Y-75343569D01*
X159689867Y-75374887D01*
X159667339Y-75402339D01*
X159639887Y-75424867D01*
X159608569Y-75441607D01*
X159574591Y-75451915D01*
X159533110Y-75456000D01*
X158931890Y-75456000D01*
X158890409Y-75451915D01*
X158856431Y-75441607D01*
X158825113Y-75424867D01*
X158797661Y-75402339D01*
X158775133Y-75374887D01*
X158758393Y-75343569D01*
X158748085Y-75309591D01*
X158744000Y-75268110D01*
X158744000Y-74591890D01*
X158748085Y-74550409D01*
X158758393Y-74516431D01*
X158775133Y-74485113D01*
X158797661Y-74457661D01*
X158825113Y-74435133D01*
X158856431Y-74418393D01*
X158890409Y-74408085D01*
X158931890Y-74404000D01*
X159533110Y-74404000D01*
X159574591Y-74408085D01*
X159574591Y-74408085D01*
G37*
G36*
X108901000Y-71198000D02*
X108754612Y-71198000D01*
X108730226Y-71200402D01*
X108706777Y-71207515D01*
X108685166Y-71219066D01*
X108666224Y-71234612D01*
X108650678Y-71253554D01*
X108639127Y-71275165D01*
X108632014Y-71298614D01*
X108629612Y-71323000D01*
X108632014Y-71347386D01*
X108639127Y-71370835D01*
X108650678Y-71392446D01*
X108675312Y-71419626D01*
X108731369Y-71465631D01*
X108804600Y-71554863D01*
X108859013Y-71656662D01*
X108892521Y-71767123D01*
X108903835Y-71882000D01*
X108892521Y-71996877D01*
X108859013Y-72107338D01*
X108804600Y-72209137D01*
X108731369Y-72298369D01*
X108642137Y-72371600D01*
X108576357Y-72406760D01*
X108555982Y-72420373D01*
X108538655Y-72437700D01*
X108525041Y-72458075D01*
X108515664Y-72480714D01*
X108510883Y-72504747D01*
X108510883Y-72529252D01*
X108515663Y-72553285D01*
X108525041Y-72575924D01*
X108538654Y-72596299D01*
X108555981Y-72613626D01*
X108576357Y-72627240D01*
X108642137Y-72662400D01*
X108731369Y-72735631D01*
X108804600Y-72824863D01*
X108859013Y-72926662D01*
X108892521Y-73037123D01*
X108903835Y-73152000D01*
X108892521Y-73266877D01*
X108859013Y-73377338D01*
X108804600Y-73479137D01*
X108731369Y-73568369D01*
X108642137Y-73641600D01*
X108576357Y-73676760D01*
X108555982Y-73690373D01*
X108538655Y-73707700D01*
X108525041Y-73728075D01*
X108515664Y-73750714D01*
X108510883Y-73774747D01*
X108510883Y-73799252D01*
X108515663Y-73823285D01*
X108525041Y-73845924D01*
X108538654Y-73866299D01*
X108555981Y-73883626D01*
X108576357Y-73897240D01*
X108642137Y-73932400D01*
X108731369Y-74005631D01*
X108804600Y-74094863D01*
X108859013Y-74196662D01*
X108892521Y-74307123D01*
X108903835Y-74422000D01*
X108892521Y-74536877D01*
X108859013Y-74647338D01*
X108804600Y-74749137D01*
X108731369Y-74838369D01*
X108642137Y-74911600D01*
X108540338Y-74966013D01*
X108429877Y-74999521D01*
X108343786Y-75008000D01*
X107556214Y-75008000D01*
X107470123Y-74999521D01*
X107359662Y-74966013D01*
X107257863Y-74911600D01*
X107168631Y-74838369D01*
X107095400Y-74749137D01*
X107040987Y-74647338D01*
X107007479Y-74536877D01*
X106996165Y-74422000D01*
X107007479Y-74307123D01*
X107040987Y-74196662D01*
X107095400Y-74094863D01*
X107168631Y-74005631D01*
X107257863Y-73932400D01*
X107323643Y-73897240D01*
X107344018Y-73883627D01*
X107361345Y-73866300D01*
X107374959Y-73845925D01*
X107384336Y-73823286D01*
X107389117Y-73799253D01*
X107389117Y-73774748D01*
X107384337Y-73750715D01*
X107374959Y-73728076D01*
X107361346Y-73707701D01*
X107344019Y-73690374D01*
X107323643Y-73676760D01*
X107257863Y-73641600D01*
X107168631Y-73568369D01*
X107095400Y-73479137D01*
X107040987Y-73377338D01*
X107007479Y-73266877D01*
X106996165Y-73152000D01*
X107007479Y-73037123D01*
X107040987Y-72926662D01*
X107095400Y-72824863D01*
X107168631Y-72735631D01*
X107257863Y-72662400D01*
X107323643Y-72627240D01*
X107344018Y-72613627D01*
X107361345Y-72596300D01*
X107374959Y-72575925D01*
X107384336Y-72553286D01*
X107389117Y-72529253D01*
X107389117Y-72504748D01*
X107384337Y-72480715D01*
X107374959Y-72458076D01*
X107361346Y-72437701D01*
X107344019Y-72420374D01*
X107323643Y-72406760D01*
X107257863Y-72371600D01*
X107168631Y-72298369D01*
X107095400Y-72209137D01*
X107040987Y-72107338D01*
X107007479Y-71996877D01*
X106996165Y-71882000D01*
X107007479Y-71767123D01*
X107040987Y-71656662D01*
X107095400Y-71554863D01*
X107168631Y-71465631D01*
X107224688Y-71419626D01*
X107242015Y-71402299D01*
X107255628Y-71381924D01*
X107265006Y-71359285D01*
X107269786Y-71335251D01*
X107269786Y-71310747D01*
X107265005Y-71286714D01*
X107255628Y-71264075D01*
X107242014Y-71243700D01*
X107224687Y-71226373D01*
X107204312Y-71212760D01*
X107181673Y-71203382D01*
X107145388Y-71198000D01*
X106999000Y-71198000D01*
X106999000Y-70026000D01*
X108901000Y-70026000D01*
X108901000Y-71198000D01*
X108901000Y-71198000D01*
G37*
G36*
X182401000Y-73001000D02*
X180399000Y-73001000D01*
X180399000Y-71099000D01*
X182401000Y-71099000D01*
X182401000Y-73001000D01*
X182401000Y-73001000D01*
G37*
G36*
X179301000Y-72451000D02*
X177799000Y-72451000D01*
X177799000Y-69349000D01*
X179301000Y-69349000D01*
X179301000Y-72451000D01*
X179301000Y-72451000D01*
G37*
G36*
X122299591Y-71423085D02*
X122333569Y-71433393D01*
X122364887Y-71450133D01*
X122392339Y-71472661D01*
X122414867Y-71500113D01*
X122431607Y-71531431D01*
X122441915Y-71565409D01*
X122446000Y-71606890D01*
X122446000Y-72208110D01*
X122441915Y-72249591D01*
X122431607Y-72283569D01*
X122414867Y-72314887D01*
X122392339Y-72342339D01*
X122364887Y-72364867D01*
X122333569Y-72381607D01*
X122299591Y-72391915D01*
X122258110Y-72396000D01*
X121581890Y-72396000D01*
X121540409Y-72391915D01*
X121506431Y-72381607D01*
X121475113Y-72364867D01*
X121447661Y-72342339D01*
X121425133Y-72314887D01*
X121408393Y-72283569D01*
X121398085Y-72249591D01*
X121394000Y-72208110D01*
X121394000Y-71606890D01*
X121398085Y-71565409D01*
X121408393Y-71531431D01*
X121425133Y-71500113D01*
X121447661Y-71472661D01*
X121475113Y-71450133D01*
X121506431Y-71433393D01*
X121540409Y-71423085D01*
X121581890Y-71419000D01*
X122258110Y-71419000D01*
X122299591Y-71423085D01*
X122299591Y-71423085D01*
G37*
G36*
X156326000Y-71021000D02*
X148474000Y-71021000D01*
X148474000Y-69919000D01*
X156326000Y-69919000D01*
X156326000Y-71021000D01*
X156326000Y-71021000D01*
G37*
G36*
X122299591Y-69848085D02*
X122333569Y-69858393D01*
X122364887Y-69875133D01*
X122392339Y-69897661D01*
X122414867Y-69925113D01*
X122431607Y-69956431D01*
X122441915Y-69990409D01*
X122446000Y-70031890D01*
X122446000Y-70633110D01*
X122441915Y-70674591D01*
X122431607Y-70708569D01*
X122414867Y-70739887D01*
X122392339Y-70767339D01*
X122364887Y-70789867D01*
X122333569Y-70806607D01*
X122299591Y-70816915D01*
X122258110Y-70821000D01*
X121581890Y-70821000D01*
X121540409Y-70816915D01*
X121506431Y-70806607D01*
X121475113Y-70789867D01*
X121447661Y-70767339D01*
X121425133Y-70739887D01*
X121408393Y-70708569D01*
X121398085Y-70674591D01*
X121394000Y-70633110D01*
X121394000Y-70031890D01*
X121398085Y-69990409D01*
X121408393Y-69956431D01*
X121425133Y-69925113D01*
X121447661Y-69897661D01*
X121475113Y-69875133D01*
X121506431Y-69858393D01*
X121540409Y-69848085D01*
X121581890Y-69844000D01*
X122258110Y-69844000D01*
X122299591Y-69848085D01*
X122299591Y-69848085D01*
G37*
G36*
X182401000Y-70701000D02*
X180399000Y-70701000D01*
X180399000Y-68799000D01*
X182401000Y-68799000D01*
X182401000Y-70701000D01*
X182401000Y-70701000D01*
G37*
G36*
X158651000Y-68696000D02*
X157549000Y-68696000D01*
X157549000Y-60844000D01*
X158651000Y-60844000D01*
X158651000Y-68696000D01*
X158651000Y-68696000D01*
G37*
G36*
X147251000Y-68696000D02*
X146149000Y-68696000D01*
X146149000Y-60844000D01*
X147251000Y-60844000D01*
X147251000Y-68696000D01*
X147251000Y-68696000D01*
G37*
G36*
X182401000Y-68351000D02*
X180399000Y-68351000D01*
X180399000Y-65949000D01*
X182401000Y-65949000D01*
X182401000Y-68351000D01*
X182401000Y-68351000D01*
G37*
G36*
X126691000Y-68346000D02*
X126039000Y-68346000D01*
X126039000Y-66494000D01*
X126691000Y-66494000D01*
X126691000Y-68346000D01*
X126691000Y-68346000D01*
G37*
G36*
X130501000Y-68346000D02*
X129849000Y-68346000D01*
X129849000Y-66494000D01*
X130501000Y-66494000D01*
X130501000Y-68346000D01*
X130501000Y-68346000D01*
G37*
G36*
X129231000Y-68346000D02*
X128579000Y-68346000D01*
X128579000Y-66494000D01*
X129231000Y-66494000D01*
X129231000Y-68346000D01*
X129231000Y-68346000D01*
G37*
G36*
X127961000Y-68346000D02*
X127309000Y-68346000D01*
X127309000Y-66494000D01*
X127961000Y-66494000D01*
X127961000Y-68346000D01*
X127961000Y-68346000D01*
G37*
G36*
X107059591Y-66343085D02*
X107093569Y-66353393D01*
X107124887Y-66370133D01*
X107152339Y-66392661D01*
X107174867Y-66420113D01*
X107191607Y-66451431D01*
X107201915Y-66485409D01*
X107206000Y-66526890D01*
X107206000Y-67128110D01*
X107201915Y-67169591D01*
X107191607Y-67203569D01*
X107174867Y-67234887D01*
X107152339Y-67262339D01*
X107124887Y-67284867D01*
X107093569Y-67301607D01*
X107059591Y-67311915D01*
X107018110Y-67316000D01*
X106341890Y-67316000D01*
X106300409Y-67311915D01*
X106266431Y-67301607D01*
X106235113Y-67284867D01*
X106207661Y-67262339D01*
X106185133Y-67234887D01*
X106168393Y-67203569D01*
X106158085Y-67169591D01*
X106154000Y-67128110D01*
X106154000Y-66526890D01*
X106158085Y-66485409D01*
X106168393Y-66451431D01*
X106185133Y-66420113D01*
X106207661Y-66392661D01*
X106235113Y-66370133D01*
X106266431Y-66353393D01*
X106300409Y-66343085D01*
X106341890Y-66339000D01*
X107018110Y-66339000D01*
X107059591Y-66343085D01*
X107059591Y-66343085D01*
G37*
G36*
X107059591Y-64768085D02*
X107093569Y-64778393D01*
X107124887Y-64795133D01*
X107152339Y-64817661D01*
X107174867Y-64845113D01*
X107191607Y-64876431D01*
X107201915Y-64910409D01*
X107206000Y-64951890D01*
X107206000Y-65553110D01*
X107201915Y-65594591D01*
X107191607Y-65628569D01*
X107174867Y-65659887D01*
X107152339Y-65687339D01*
X107124887Y-65709867D01*
X107093569Y-65726607D01*
X107059591Y-65736915D01*
X107018110Y-65741000D01*
X106341890Y-65741000D01*
X106300409Y-65736915D01*
X106266431Y-65726607D01*
X106235113Y-65709867D01*
X106207661Y-65687339D01*
X106185133Y-65659887D01*
X106168393Y-65628569D01*
X106158085Y-65594591D01*
X106154000Y-65553110D01*
X106154000Y-64951890D01*
X106158085Y-64910409D01*
X106168393Y-64876431D01*
X106185133Y-64845113D01*
X106207661Y-64817661D01*
X106235113Y-64795133D01*
X106266431Y-64778393D01*
X106300409Y-64768085D01*
X106341890Y-64764000D01*
X107018110Y-64764000D01*
X107059591Y-64768085D01*
X107059591Y-64768085D01*
G37*
G36*
X131939591Y-62978085D02*
X131973569Y-62988393D01*
X132004887Y-63005133D01*
X132032339Y-63027661D01*
X132054867Y-63055113D01*
X132071607Y-63086431D01*
X132081915Y-63120409D01*
X132086000Y-63161890D01*
X132086000Y-63838110D01*
X132081915Y-63879591D01*
X132071607Y-63913569D01*
X132054867Y-63944887D01*
X132032339Y-63972339D01*
X132004887Y-63994867D01*
X131973569Y-64011607D01*
X131939591Y-64021915D01*
X131898110Y-64026000D01*
X131296890Y-64026000D01*
X131255409Y-64021915D01*
X131221431Y-64011607D01*
X131190113Y-63994867D01*
X131162661Y-63972339D01*
X131140133Y-63944887D01*
X131123393Y-63913569D01*
X131113085Y-63879591D01*
X131109000Y-63838110D01*
X131109000Y-63161890D01*
X131113085Y-63120409D01*
X131123393Y-63086431D01*
X131140133Y-63055113D01*
X131162661Y-63027661D01*
X131190113Y-63005133D01*
X131221431Y-62988393D01*
X131255409Y-62978085D01*
X131296890Y-62974000D01*
X131898110Y-62974000D01*
X131939591Y-62978085D01*
X131939591Y-62978085D01*
G37*
G36*
X130364591Y-62978085D02*
X130398569Y-62988393D01*
X130429887Y-63005133D01*
X130457339Y-63027661D01*
X130479867Y-63055113D01*
X130496607Y-63086431D01*
X130506915Y-63120409D01*
X130511000Y-63161890D01*
X130511000Y-63838110D01*
X130506915Y-63879591D01*
X130496607Y-63913569D01*
X130479867Y-63944887D01*
X130457339Y-63972339D01*
X130429887Y-63994867D01*
X130398569Y-64011607D01*
X130364591Y-64021915D01*
X130323110Y-64026000D01*
X129721890Y-64026000D01*
X129680409Y-64021915D01*
X129646431Y-64011607D01*
X129615113Y-63994867D01*
X129587661Y-63972339D01*
X129565133Y-63944887D01*
X129548393Y-63913569D01*
X129538085Y-63879591D01*
X129534000Y-63838110D01*
X129534000Y-63161890D01*
X129538085Y-63120409D01*
X129548393Y-63086431D01*
X129565133Y-63055113D01*
X129587661Y-63027661D01*
X129615113Y-63005133D01*
X129646431Y-62988393D01*
X129680409Y-62978085D01*
X129721890Y-62974000D01*
X130323110Y-62974000D01*
X130364591Y-62978085D01*
X130364591Y-62978085D01*
G37*
G36*
X128631242Y-57229143D02*
X128856625Y-57322499D01*
X129059469Y-57458035D01*
X129231965Y-57630531D01*
X129367501Y-57833375D01*
X129460857Y-58058758D01*
X129508450Y-58298022D01*
X129508450Y-58541978D01*
X129460857Y-58781242D01*
X129367501Y-59006625D01*
X129231965Y-59209469D01*
X129059469Y-59381965D01*
X128856625Y-59517501D01*
X128631242Y-59610857D01*
X128391978Y-59658450D01*
X128148022Y-59658450D01*
X127908758Y-59610857D01*
X127683375Y-59517501D01*
X127480531Y-59381965D01*
X127308035Y-59209469D01*
X127172499Y-59006625D01*
X127079143Y-58781242D01*
X127031550Y-58541978D01*
X127031550Y-58298022D01*
X127079143Y-58058758D01*
X127172499Y-57833375D01*
X127308035Y-57630531D01*
X127480531Y-57458035D01*
X127683375Y-57322499D01*
X127908758Y-57229143D01*
X128148022Y-57181550D01*
X128391978Y-57181550D01*
X128631242Y-57229143D01*
X128631242Y-57229143D01*
G37*
G36*
X131806242Y-57229143D02*
X132031625Y-57322499D01*
X132234469Y-57458035D01*
X132406965Y-57630531D01*
X132542501Y-57833375D01*
X132635857Y-58058758D01*
X132683450Y-58298022D01*
X132683450Y-58541978D01*
X132635857Y-58781242D01*
X132542501Y-59006625D01*
X132406965Y-59209469D01*
X132234469Y-59381965D01*
X132031625Y-59517501D01*
X131806242Y-59610857D01*
X131566978Y-59658450D01*
X131323022Y-59658450D01*
X131083758Y-59610857D01*
X130858375Y-59517501D01*
X130655531Y-59381965D01*
X130483035Y-59209469D01*
X130347499Y-59006625D01*
X130254143Y-58781242D01*
X130206550Y-58541978D01*
X130206550Y-58298022D01*
X130254143Y-58058758D01*
X130347499Y-57833375D01*
X130483035Y-57630531D01*
X130655531Y-57458035D01*
X130858375Y-57322499D01*
X131083758Y-57229143D01*
X131323022Y-57181550D01*
X131566978Y-57181550D01*
X131806242Y-57229143D01*
X131806242Y-57229143D01*
G37*
G36*
X156326000Y-59621000D02*
X148474000Y-59621000D01*
X148474000Y-58519000D01*
X156326000Y-58519000D01*
X156326000Y-59621000D01*
X156326000Y-59621000D01*
G37*
G36*
X133509350Y-56370694D02*
X133608770Y-56411875D01*
X133698249Y-56471663D01*
X133774337Y-56547751D01*
X133834125Y-56637230D01*
X133875306Y-56736650D01*
X133896300Y-56842194D01*
X133896300Y-56949806D01*
X133875306Y-57055350D01*
X133834125Y-57154770D01*
X133774337Y-57244249D01*
X133698249Y-57320337D01*
X133698246Y-57320339D01*
X133608770Y-57380125D01*
X133509350Y-57421306D01*
X133403806Y-57442300D01*
X133296194Y-57442300D01*
X133190650Y-57421306D01*
X133091230Y-57380125D01*
X133001754Y-57320339D01*
X133001751Y-57320337D01*
X132925663Y-57244249D01*
X132865875Y-57154770D01*
X132824694Y-57055350D01*
X132803700Y-56949806D01*
X132803700Y-56842194D01*
X132824694Y-56736650D01*
X132865875Y-56637230D01*
X132925663Y-56547751D01*
X133001751Y-56471663D01*
X133091230Y-56411875D01*
X133190650Y-56370694D01*
X133296194Y-56349700D01*
X133403806Y-56349700D01*
X133509350Y-56370694D01*
X133509350Y-56370694D01*
G37*
G36*
X130939714Y-56087389D02*
X131020644Y-56120911D01*
X131093483Y-56169581D01*
X131155419Y-56231517D01*
X131204089Y-56304356D01*
X131237611Y-56385286D01*
X131254700Y-56471199D01*
X131254700Y-56558801D01*
X131237611Y-56644714D01*
X131204089Y-56725644D01*
X131155419Y-56798483D01*
X131093483Y-56860419D01*
X131020644Y-56909089D01*
X130939714Y-56942611D01*
X130853801Y-56959700D01*
X130766199Y-56959700D01*
X130680286Y-56942611D01*
X130599356Y-56909089D01*
X130526517Y-56860419D01*
X130464581Y-56798483D01*
X130415911Y-56725644D01*
X130382389Y-56644714D01*
X130365300Y-56558801D01*
X130365300Y-56471199D01*
X130382389Y-56385286D01*
X130415911Y-56304356D01*
X130464581Y-56231517D01*
X130526517Y-56169581D01*
X130599356Y-56120911D01*
X130680286Y-56087389D01*
X130766199Y-56070300D01*
X130853801Y-56070300D01*
X130939714Y-56087389D01*
X130939714Y-56087389D01*
G37*
G36*
X132209714Y-56087389D02*
X132290644Y-56120911D01*
X132363483Y-56169581D01*
X132425419Y-56231517D01*
X132474089Y-56304356D01*
X132507611Y-56385286D01*
X132524700Y-56471199D01*
X132524700Y-56558801D01*
X132507611Y-56644714D01*
X132474089Y-56725644D01*
X132425419Y-56798483D01*
X132363483Y-56860419D01*
X132290644Y-56909089D01*
X132209714Y-56942611D01*
X132123801Y-56959700D01*
X132036199Y-56959700D01*
X131950286Y-56942611D01*
X131869356Y-56909089D01*
X131796517Y-56860419D01*
X131734581Y-56798483D01*
X131685911Y-56725644D01*
X131652389Y-56644714D01*
X131635300Y-56558801D01*
X131635300Y-56471199D01*
X131652389Y-56385286D01*
X131685911Y-56304356D01*
X131734581Y-56231517D01*
X131796517Y-56169581D01*
X131869356Y-56120911D01*
X131950286Y-56087389D01*
X132036199Y-56070300D01*
X132123801Y-56070300D01*
X132209714Y-56087389D01*
X132209714Y-56087389D01*
G37*
G36*
X129669714Y-56087389D02*
X129750644Y-56120911D01*
X129823483Y-56169581D01*
X129885419Y-56231517D01*
X129934089Y-56304356D01*
X129967611Y-56385286D01*
X129984700Y-56471199D01*
X129984700Y-56558801D01*
X129967611Y-56644714D01*
X129934089Y-56725644D01*
X129885419Y-56798483D01*
X129823483Y-56860419D01*
X129750644Y-56909089D01*
X129669714Y-56942611D01*
X129583801Y-56959700D01*
X129496199Y-56959700D01*
X129410286Y-56942611D01*
X129329356Y-56909089D01*
X129256517Y-56860419D01*
X129194581Y-56798483D01*
X129145911Y-56725644D01*
X129112389Y-56644714D01*
X129095300Y-56558801D01*
X129095300Y-56471199D01*
X129112389Y-56385286D01*
X129145911Y-56304356D01*
X129194581Y-56231517D01*
X129256517Y-56169581D01*
X129329356Y-56120911D01*
X129410286Y-56087389D01*
X129496199Y-56070300D01*
X129583801Y-56070300D01*
X129669714Y-56087389D01*
X129669714Y-56087389D01*
G37*
G36*
X128429350Y-55354694D02*
X128528770Y-55395875D01*
X128618249Y-55455663D01*
X128694337Y-55531751D01*
X128754125Y-55621230D01*
X128795306Y-55720650D01*
X128816300Y-55826194D01*
X128816300Y-55933806D01*
X128795306Y-56039350D01*
X128754125Y-56138770D01*
X128694337Y-56228249D01*
X128618249Y-56304337D01*
X128528770Y-56364125D01*
X128429350Y-56405306D01*
X128323806Y-56426300D01*
X128216194Y-56426300D01*
X128110650Y-56405306D01*
X128011230Y-56364125D01*
X127921751Y-56304337D01*
X127845663Y-56228249D01*
X127785875Y-56138770D01*
X127744694Y-56039350D01*
X127723700Y-55933806D01*
X127723700Y-55826194D01*
X127744694Y-55720650D01*
X127785875Y-55621230D01*
X127845663Y-55531751D01*
X127921751Y-55455663D01*
X128011230Y-55395875D01*
X128110650Y-55354694D01*
X128216194Y-55333700D01*
X128323806Y-55333700D01*
X128429350Y-55354694D01*
X128429350Y-55354694D01*
G37*
G36*
X132209714Y-54817389D02*
X132290644Y-54850911D01*
X132363483Y-54899581D01*
X132425419Y-54961517D01*
X132474089Y-55034356D01*
X132507611Y-55115286D01*
X132524700Y-55201199D01*
X132524700Y-55288801D01*
X132507611Y-55374714D01*
X132474089Y-55455644D01*
X132425419Y-55528483D01*
X132363483Y-55590419D01*
X132290644Y-55639089D01*
X132209714Y-55672611D01*
X132123801Y-55689700D01*
X132036199Y-55689700D01*
X131950286Y-55672611D01*
X131869356Y-55639089D01*
X131796517Y-55590419D01*
X131734581Y-55528483D01*
X131685911Y-55455644D01*
X131652389Y-55374714D01*
X131635300Y-55288801D01*
X131635300Y-55201199D01*
X131652389Y-55115286D01*
X131685911Y-55034356D01*
X131734581Y-54961517D01*
X131796517Y-54899581D01*
X131869356Y-54850911D01*
X131950286Y-54817389D01*
X132036199Y-54800300D01*
X132123801Y-54800300D01*
X132209714Y-54817389D01*
X132209714Y-54817389D01*
G37*
G36*
X130939714Y-54817389D02*
X131020644Y-54850911D01*
X131093483Y-54899581D01*
X131155419Y-54961517D01*
X131204089Y-55034356D01*
X131237611Y-55115286D01*
X131254700Y-55201199D01*
X131254700Y-55288801D01*
X131237611Y-55374714D01*
X131204089Y-55455644D01*
X131155419Y-55528483D01*
X131093483Y-55590419D01*
X131020644Y-55639089D01*
X130939714Y-55672611D01*
X130853801Y-55689700D01*
X130766199Y-55689700D01*
X130680286Y-55672611D01*
X130599356Y-55639089D01*
X130526517Y-55590419D01*
X130464581Y-55528483D01*
X130415911Y-55455644D01*
X130382389Y-55374714D01*
X130365300Y-55288801D01*
X130365300Y-55201199D01*
X130382389Y-55115286D01*
X130415911Y-55034356D01*
X130464581Y-54961517D01*
X130526517Y-54899581D01*
X130599356Y-54850911D01*
X130680286Y-54817389D01*
X130766199Y-54800300D01*
X130853801Y-54800300D01*
X130939714Y-54817389D01*
X130939714Y-54817389D01*
G37*
G36*
X129669714Y-54817389D02*
X129750644Y-54850911D01*
X129823483Y-54899581D01*
X129885419Y-54961517D01*
X129934089Y-55034356D01*
X129967611Y-55115286D01*
X129984700Y-55201199D01*
X129984700Y-55288801D01*
X129967611Y-55374714D01*
X129934089Y-55455644D01*
X129885419Y-55528483D01*
X129823483Y-55590419D01*
X129750644Y-55639089D01*
X129669714Y-55672611D01*
X129583801Y-55689700D01*
X129496199Y-55689700D01*
X129410286Y-55672611D01*
X129329356Y-55639089D01*
X129256517Y-55590419D01*
X129194581Y-55528483D01*
X129145911Y-55455644D01*
X129112389Y-55374714D01*
X129095300Y-55288801D01*
X129095300Y-55201199D01*
X129112389Y-55115286D01*
X129145911Y-55034356D01*
X129194581Y-54961517D01*
X129256517Y-54899581D01*
X129329356Y-54850911D01*
X129410286Y-54817389D01*
X129496199Y-54800300D01*
X129583801Y-54800300D01*
X129669714Y-54817389D01*
X129669714Y-54817389D01*
G37*
G36*
X133509350Y-54338694D02*
X133608770Y-54379875D01*
X133698249Y-54439663D01*
X133774337Y-54515751D01*
X133834125Y-54605230D01*
X133875306Y-54704650D01*
X133896300Y-54810194D01*
X133896300Y-54917806D01*
X133875306Y-55023350D01*
X133834125Y-55122770D01*
X133774337Y-55212249D01*
X133698249Y-55288337D01*
X133698246Y-55288339D01*
X133608770Y-55348125D01*
X133509350Y-55389306D01*
X133403806Y-55410300D01*
X133296194Y-55410300D01*
X133190650Y-55389306D01*
X133091230Y-55348125D01*
X133001754Y-55288339D01*
X133001751Y-55288337D01*
X132925663Y-55212249D01*
X132865875Y-55122770D01*
X132824694Y-55023350D01*
X132803700Y-54917806D01*
X132803700Y-54810194D01*
X132824694Y-54704650D01*
X132865875Y-54605230D01*
X132925663Y-54515751D01*
X133001751Y-54439663D01*
X133091230Y-54379875D01*
X133190650Y-54338694D01*
X133296194Y-54317700D01*
X133403806Y-54317700D01*
X133509350Y-54338694D01*
X133509350Y-54338694D01*
G37*
G36*
X128631242Y-52149143D02*
X128856625Y-52242499D01*
X129059469Y-52378035D01*
X129231965Y-52550531D01*
X129367501Y-52753375D01*
X129460857Y-52978758D01*
X129508450Y-53218022D01*
X129508450Y-53461978D01*
X129460857Y-53701242D01*
X129367501Y-53926625D01*
X129231965Y-54129469D01*
X129059469Y-54301965D01*
X128856625Y-54437501D01*
X128631242Y-54530857D01*
X128391978Y-54578450D01*
X128148022Y-54578450D01*
X127908758Y-54530857D01*
X127683375Y-54437501D01*
X127480531Y-54301965D01*
X127308035Y-54129469D01*
X127172499Y-53926625D01*
X127079143Y-53701242D01*
X127031550Y-53461978D01*
X127031550Y-53218022D01*
X127079143Y-52978758D01*
X127172499Y-52753375D01*
X127308035Y-52550531D01*
X127480531Y-52378035D01*
X127683375Y-52242499D01*
X127908758Y-52149143D01*
X128148022Y-52101550D01*
X128391978Y-52101550D01*
X128631242Y-52149143D01*
X128631242Y-52149143D01*
G37*
G36*
X131806242Y-52149143D02*
X132031625Y-52242499D01*
X132234469Y-52378035D01*
X132406965Y-52550531D01*
X132542501Y-52753375D01*
X132635857Y-52978758D01*
X132683450Y-53218022D01*
X132683450Y-53461978D01*
X132635857Y-53701242D01*
X132542501Y-53926625D01*
X132406965Y-54129469D01*
X132234469Y-54301965D01*
X132031625Y-54437501D01*
X131806242Y-54530857D01*
X131566978Y-54578450D01*
X131323022Y-54578450D01*
X131083758Y-54530857D01*
X130858375Y-54437501D01*
X130655531Y-54301965D01*
X130483035Y-54129469D01*
X130347499Y-53926625D01*
X130254143Y-53701242D01*
X130206550Y-53461978D01*
X130206550Y-53218022D01*
X130254143Y-52978758D01*
X130347499Y-52753375D01*
X130483035Y-52550531D01*
X130655531Y-52378035D01*
X130858375Y-52242499D01*
X131083758Y-52149143D01*
X131323022Y-52101550D01*
X131566978Y-52101550D01*
X131806242Y-52149143D01*
X131806242Y-52149143D01*
G37*
M02*
