G04 #@! TF.GenerationSoftware,KiCad,Pcbnew,(5.0.2)-1*
G04 #@! TF.CreationDate,2019-02-28T20:38:06-05:00*
G04 #@! TF.ProjectId,CEC01,43454330-312e-46b6-9963-61645f706362,v0.1*
G04 #@! TF.SameCoordinates,Original*
G04 #@! TF.FileFunction,Legend,Top*
G04 #@! TF.FilePolarity,Positive*
%FSLAX46Y46*%
G04 Gerber Fmt 4.6, Leading zero omitted, Abs format (unit mm)*
G04 Created by KiCad (PCBNEW (5.0.2)-1) date 2/28/2019 8:38:06 PM*
%MOMM*%
%LPD*%
G01*
G04 APERTURE LIST*
%ADD10C,0.120000*%
%ADD11C,0.254000*%
%ADD12C,0.150000*%
G04 APERTURE END LIST*
D10*
G04 #@! TO.C,C1*
X122430000Y-70957221D02*
X122430000Y-71282779D01*
X121410000Y-70957221D02*
X121410000Y-71282779D01*
G04 #@! TO.C,C2*
X127760000Y-81117221D02*
X127760000Y-81442779D01*
X128780000Y-81117221D02*
X128780000Y-81442779D01*
G04 #@! TO.C,C3*
X124970000Y-81442779D02*
X124970000Y-81117221D01*
X123950000Y-81442779D02*
X123950000Y-81117221D01*
G04 #@! TO.C,C4*
X130972779Y-64010000D02*
X130647221Y-64010000D01*
X130972779Y-62990000D02*
X130647221Y-62990000D01*
G04 #@! TO.C,C5*
X160182779Y-75440000D02*
X159857221Y-75440000D01*
X160182779Y-74420000D02*
X159857221Y-74420000D01*
G04 #@! TO.C,C6*
X135130000Y-77632779D02*
X135130000Y-77307221D01*
X134110000Y-77632779D02*
X134110000Y-77307221D01*
G04 #@! TO.C,D1*
X109030827Y-75304815D02*
G75*
G03X109494830Y-69957000I-1080827J2787815D01*
G01*
X106869173Y-75304815D02*
G75*
G02X106405170Y-69957000I1080827J2787815D01*
G01*
X109030429Y-74771479D02*
G75*
G03X109030000Y-70262316I-1080429J2254479D01*
G01*
X106869571Y-74771479D02*
G75*
G02X106870000Y-70262316I1080429J2254479D01*
G01*
X109495000Y-69957000D02*
X109030000Y-69957000D01*
X106870000Y-69957000D02*
X106405000Y-69957000D01*
D11*
G04 #@! TO.C,J1*
X184150000Y-74930000D02*
X184150000Y-66870000D01*
X184150000Y-66870000D02*
X182703000Y-66870000D01*
X184150000Y-74930000D02*
X182647000Y-74930000D01*
X178550000Y-74930000D02*
X180155000Y-74930000D01*
X178550000Y-66870000D02*
X180197000Y-66870000D01*
X178550000Y-74930000D02*
X178550000Y-72714000D01*
X178550000Y-66870000D02*
X178550000Y-69159000D01*
X177592390Y-72884000D02*
G75*
G03X177592390Y-72884000I-71390J0D01*
G01*
D10*
G04 #@! TO.C,J2*
X156924000Y-84378100D02*
X156924000Y-81718100D01*
X134004000Y-84378100D02*
X156924000Y-84378100D01*
X134004000Y-81718100D02*
X156924000Y-81718100D01*
X134004000Y-84378100D02*
X134004000Y-81718100D01*
X132734000Y-84378100D02*
X131404000Y-84378100D01*
X131404000Y-84378100D02*
X131404000Y-83048100D01*
G04 #@! TO.C,P1*
X128905000Y-57150000D02*
X128905000Y-56515000D01*
X129540000Y-57150000D02*
X128905000Y-57150000D01*
G04 #@! TO.C,R1*
X107190000Y-65877221D02*
X107190000Y-66202779D01*
X106170000Y-65877221D02*
X106170000Y-66202779D01*
G04 #@! TO.C,R2*
X109730000Y-78902779D02*
X109730000Y-78577221D01*
X108710000Y-78902779D02*
X108710000Y-78577221D01*
G04 #@! TO.C,R3*
X106170000Y-83982779D02*
X106170000Y-83657221D01*
X107190000Y-83982779D02*
X107190000Y-83657221D01*
D12*
G04 #@! TO.C,U1*
X157575000Y-69945000D02*
X157575000Y-68945000D01*
X147225000Y-69945000D02*
X147225000Y-68870000D01*
X147225000Y-59595000D02*
X147225000Y-60670000D01*
X157575000Y-59595000D02*
X157575000Y-60670000D01*
X157575000Y-69945000D02*
X156500000Y-69945000D01*
X157575000Y-59595000D02*
X156500000Y-59595000D01*
X147225000Y-59595000D02*
X148300000Y-59595000D01*
X147225000Y-69945000D02*
X148300000Y-69945000D01*
X157575000Y-68945000D02*
X158600000Y-68945000D01*
G04 #@! TO.C,U2*
X125065000Y-73870000D02*
X125720000Y-73870000D01*
X125065000Y-68370000D02*
X125815000Y-68370000D01*
X131475000Y-68370000D02*
X130725000Y-68370000D01*
X131475000Y-73870000D02*
X130725000Y-73870000D01*
X125065000Y-73870000D02*
X125065000Y-68370000D01*
X131475000Y-73870000D02*
X131475000Y-68370000D01*
X125720000Y-73870000D02*
X125720000Y-75620000D01*
G04 #@! TO.C,C1*
X123707142Y-71286666D02*
X123754761Y-71334285D01*
X123802380Y-71477142D01*
X123802380Y-71572380D01*
X123754761Y-71715238D01*
X123659523Y-71810476D01*
X123564285Y-71858095D01*
X123373809Y-71905714D01*
X123230952Y-71905714D01*
X123040476Y-71858095D01*
X122945238Y-71810476D01*
X122850000Y-71715238D01*
X122802380Y-71572380D01*
X122802380Y-71477142D01*
X122850000Y-71334285D01*
X122897619Y-71286666D01*
X123802380Y-70334285D02*
X123802380Y-70905714D01*
X123802380Y-70620000D02*
X122802380Y-70620000D01*
X122945238Y-70715238D01*
X123040476Y-70810476D01*
X123088095Y-70905714D01*
G04 #@! TO.C,C2*
X130057142Y-81446666D02*
X130104761Y-81494285D01*
X130152380Y-81637142D01*
X130152380Y-81732380D01*
X130104761Y-81875238D01*
X130009523Y-81970476D01*
X129914285Y-82018095D01*
X129723809Y-82065714D01*
X129580952Y-82065714D01*
X129390476Y-82018095D01*
X129295238Y-81970476D01*
X129200000Y-81875238D01*
X129152380Y-81732380D01*
X129152380Y-81637142D01*
X129200000Y-81494285D01*
X129247619Y-81446666D01*
X129247619Y-81065714D02*
X129200000Y-81018095D01*
X129152380Y-80922857D01*
X129152380Y-80684761D01*
X129200000Y-80589523D01*
X129247619Y-80541904D01*
X129342857Y-80494285D01*
X129438095Y-80494285D01*
X129580952Y-80541904D01*
X130152380Y-81113333D01*
X130152380Y-80494285D01*
G04 #@! TO.C,C3*
X123387142Y-81446666D02*
X123434761Y-81494285D01*
X123482380Y-81637142D01*
X123482380Y-81732380D01*
X123434761Y-81875238D01*
X123339523Y-81970476D01*
X123244285Y-82018095D01*
X123053809Y-82065714D01*
X122910952Y-82065714D01*
X122720476Y-82018095D01*
X122625238Y-81970476D01*
X122530000Y-81875238D01*
X122482380Y-81732380D01*
X122482380Y-81637142D01*
X122530000Y-81494285D01*
X122577619Y-81446666D01*
X122482380Y-81113333D02*
X122482380Y-80494285D01*
X122863333Y-80827619D01*
X122863333Y-80684761D01*
X122910952Y-80589523D01*
X122958571Y-80541904D01*
X123053809Y-80494285D01*
X123291904Y-80494285D01*
X123387142Y-80541904D01*
X123434761Y-80589523D01*
X123482380Y-80684761D01*
X123482380Y-80970476D01*
X123434761Y-81065714D01*
X123387142Y-81113333D01*
G04 #@! TO.C,C4*
X130643333Y-65287142D02*
X130595714Y-65334761D01*
X130452857Y-65382380D01*
X130357619Y-65382380D01*
X130214761Y-65334761D01*
X130119523Y-65239523D01*
X130071904Y-65144285D01*
X130024285Y-64953809D01*
X130024285Y-64810952D01*
X130071904Y-64620476D01*
X130119523Y-64525238D01*
X130214761Y-64430000D01*
X130357619Y-64382380D01*
X130452857Y-64382380D01*
X130595714Y-64430000D01*
X130643333Y-64477619D01*
X131500476Y-64715714D02*
X131500476Y-65382380D01*
X131262380Y-64334761D02*
X131024285Y-65049047D01*
X131643333Y-65049047D01*
G04 #@! TO.C,C5*
X159853333Y-76717142D02*
X159805714Y-76764761D01*
X159662857Y-76812380D01*
X159567619Y-76812380D01*
X159424761Y-76764761D01*
X159329523Y-76669523D01*
X159281904Y-76574285D01*
X159234285Y-76383809D01*
X159234285Y-76240952D01*
X159281904Y-76050476D01*
X159329523Y-75955238D01*
X159424761Y-75860000D01*
X159567619Y-75812380D01*
X159662857Y-75812380D01*
X159805714Y-75860000D01*
X159853333Y-75907619D01*
X160758095Y-75812380D02*
X160281904Y-75812380D01*
X160234285Y-76288571D01*
X160281904Y-76240952D01*
X160377142Y-76193333D01*
X160615238Y-76193333D01*
X160710476Y-76240952D01*
X160758095Y-76288571D01*
X160805714Y-76383809D01*
X160805714Y-76621904D01*
X160758095Y-76717142D01*
X160710476Y-76764761D01*
X160615238Y-76812380D01*
X160377142Y-76812380D01*
X160281904Y-76764761D01*
X160234285Y-76717142D01*
G04 #@! TO.C,C6*
X133547142Y-77636666D02*
X133594761Y-77684285D01*
X133642380Y-77827142D01*
X133642380Y-77922380D01*
X133594761Y-78065238D01*
X133499523Y-78160476D01*
X133404285Y-78208095D01*
X133213809Y-78255714D01*
X133070952Y-78255714D01*
X132880476Y-78208095D01*
X132785238Y-78160476D01*
X132690000Y-78065238D01*
X132642380Y-77922380D01*
X132642380Y-77827142D01*
X132690000Y-77684285D01*
X132737619Y-77636666D01*
X132642380Y-76779523D02*
X132642380Y-76970000D01*
X132690000Y-77065238D01*
X132737619Y-77112857D01*
X132880476Y-77208095D01*
X133070952Y-77255714D01*
X133451904Y-77255714D01*
X133547142Y-77208095D01*
X133594761Y-77160476D01*
X133642380Y-77065238D01*
X133642380Y-76874761D01*
X133594761Y-76779523D01*
X133547142Y-76731904D01*
X133451904Y-76684285D01*
X133213809Y-76684285D01*
X133118571Y-76731904D01*
X133070952Y-76779523D01*
X133023333Y-76874761D01*
X133023333Y-77065238D01*
X133070952Y-77160476D01*
X133118571Y-77208095D01*
X133213809Y-77255714D01*
G04 #@! TO.C,D1*
X112362380Y-73255095D02*
X111362380Y-73255095D01*
X111362380Y-73017000D01*
X111410000Y-72874142D01*
X111505238Y-72778904D01*
X111600476Y-72731285D01*
X111790952Y-72683666D01*
X111933809Y-72683666D01*
X112124285Y-72731285D01*
X112219523Y-72778904D01*
X112314761Y-72874142D01*
X112362380Y-73017000D01*
X112362380Y-73255095D01*
X112362380Y-71731285D02*
X112362380Y-72302714D01*
X112362380Y-72017000D02*
X111362380Y-72017000D01*
X111505238Y-72112238D01*
X111600476Y-72207476D01*
X111648095Y-72302714D01*
G04 #@! TO.C,J1*
D11*
X179034523Y-71678333D02*
X179941666Y-71678333D01*
X180123095Y-71738809D01*
X180244047Y-71859761D01*
X180304523Y-72041190D01*
X180304523Y-72162142D01*
X180304523Y-70408333D02*
X180304523Y-71134047D01*
X180304523Y-70771190D02*
X179034523Y-70771190D01*
X179215952Y-70892142D01*
X179336904Y-71013095D01*
X179397380Y-71134047D01*
G04 #@! TO.C,J2*
D12*
X129856380Y-83381433D02*
X130570666Y-83381433D01*
X130713523Y-83429052D01*
X130808761Y-83524290D01*
X130856380Y-83667147D01*
X130856380Y-83762385D01*
X129951619Y-82952861D02*
X129904000Y-82905242D01*
X129856380Y-82810004D01*
X129856380Y-82571909D01*
X129904000Y-82476671D01*
X129951619Y-82429052D01*
X130046857Y-82381433D01*
X130142095Y-82381433D01*
X130284952Y-82429052D01*
X130856380Y-83000480D01*
X130856380Y-82381433D01*
G04 #@! TO.C,P1*
X130071904Y-61332380D02*
X130071904Y-60332380D01*
X130452857Y-60332380D01*
X130548095Y-60380000D01*
X130595714Y-60427619D01*
X130643333Y-60522857D01*
X130643333Y-60665714D01*
X130595714Y-60760952D01*
X130548095Y-60808571D01*
X130452857Y-60856190D01*
X130071904Y-60856190D01*
X131595714Y-61332380D02*
X131024285Y-61332380D01*
X131310000Y-61332380D02*
X131310000Y-60332380D01*
X131214761Y-60475238D01*
X131119523Y-60570476D01*
X131024285Y-60618095D01*
G04 #@! TO.C,R1*
X108562380Y-66206666D02*
X108086190Y-66540000D01*
X108562380Y-66778095D02*
X107562380Y-66778095D01*
X107562380Y-66397142D01*
X107610000Y-66301904D01*
X107657619Y-66254285D01*
X107752857Y-66206666D01*
X107895714Y-66206666D01*
X107990952Y-66254285D01*
X108038571Y-66301904D01*
X108086190Y-66397142D01*
X108086190Y-66778095D01*
X108562380Y-65254285D02*
X108562380Y-65825714D01*
X108562380Y-65540000D02*
X107562380Y-65540000D01*
X107705238Y-65635238D01*
X107800476Y-65730476D01*
X107848095Y-65825714D01*
G04 #@! TO.C,R2*
X108242380Y-78906666D02*
X107766190Y-79240000D01*
X108242380Y-79478095D02*
X107242380Y-79478095D01*
X107242380Y-79097142D01*
X107290000Y-79001904D01*
X107337619Y-78954285D01*
X107432857Y-78906666D01*
X107575714Y-78906666D01*
X107670952Y-78954285D01*
X107718571Y-79001904D01*
X107766190Y-79097142D01*
X107766190Y-79478095D01*
X107337619Y-78525714D02*
X107290000Y-78478095D01*
X107242380Y-78382857D01*
X107242380Y-78144761D01*
X107290000Y-78049523D01*
X107337619Y-78001904D01*
X107432857Y-77954285D01*
X107528095Y-77954285D01*
X107670952Y-78001904D01*
X108242380Y-78573333D01*
X108242380Y-77954285D01*
G04 #@! TO.C,R3*
X105702380Y-83986666D02*
X105226190Y-84320000D01*
X105702380Y-84558095D02*
X104702380Y-84558095D01*
X104702380Y-84177142D01*
X104750000Y-84081904D01*
X104797619Y-84034285D01*
X104892857Y-83986666D01*
X105035714Y-83986666D01*
X105130952Y-84034285D01*
X105178571Y-84081904D01*
X105226190Y-84177142D01*
X105226190Y-84558095D01*
X104702380Y-83653333D02*
X104702380Y-83034285D01*
X105083333Y-83367619D01*
X105083333Y-83224761D01*
X105130952Y-83129523D01*
X105178571Y-83081904D01*
X105273809Y-83034285D01*
X105511904Y-83034285D01*
X105607142Y-83081904D01*
X105654761Y-83129523D01*
X105702380Y-83224761D01*
X105702380Y-83510476D01*
X105654761Y-83605714D01*
X105607142Y-83653333D01*
G04 #@! TO.C,U1*
X151638095Y-71422380D02*
X151638095Y-72231904D01*
X151685714Y-72327142D01*
X151733333Y-72374761D01*
X151828571Y-72422380D01*
X152019047Y-72422380D01*
X152114285Y-72374761D01*
X152161904Y-72327142D01*
X152209523Y-72231904D01*
X152209523Y-71422380D01*
X153209523Y-72422380D02*
X152638095Y-72422380D01*
X152923809Y-72422380D02*
X152923809Y-71422380D01*
X152828571Y-71565238D01*
X152733333Y-71660476D01*
X152638095Y-71708095D01*
G04 #@! TO.C,U2*
X134072380Y-71881904D02*
X134881904Y-71881904D01*
X134977142Y-71834285D01*
X135024761Y-71786666D01*
X135072380Y-71691428D01*
X135072380Y-71500952D01*
X135024761Y-71405714D01*
X134977142Y-71358095D01*
X134881904Y-71310476D01*
X134072380Y-71310476D01*
X134167619Y-70881904D02*
X134120000Y-70834285D01*
X134072380Y-70739047D01*
X134072380Y-70500952D01*
X134120000Y-70405714D01*
X134167619Y-70358095D01*
X134262857Y-70310476D01*
X134358095Y-70310476D01*
X134500952Y-70358095D01*
X135072380Y-70929523D01*
X135072380Y-70310476D01*
G04 #@! TD*
M02*
