G04 #@! TF.GenerationSoftware,KiCad,Pcbnew,(5.0.2)-1*
G04 #@! TF.CreationDate,2019-02-28T20:38:06-05:00*
G04 #@! TF.ProjectId,CEC01,43454330-312e-46b6-9963-61645f706362,v0.1*
G04 #@! TF.SameCoordinates,Original*
G04 #@! TF.FileFunction,Copper,L2,Bot*
G04 #@! TF.FilePolarity,Positive*
%FSLAX46Y46*%
G04 Gerber Fmt 4.6, Leading zero omitted, Abs format (unit mm)*
G04 Created by KiCad (PCBNEW (5.0.2)-1) date 2/28/2019 8:38:06 PM*
%MOMM*%
%LPD*%
G01*
G04 APERTURE LIST*
G04 #@! TA.AperFunction,ComponentPad*
%ADD10R,1.800000X1.070000*%
G04 #@! TD*
G04 #@! TA.AperFunction,ComponentPad*
%ADD11O,1.800000X1.070000*%
G04 #@! TD*
G04 #@! TA.AperFunction,ComponentPad*
%ADD12R,1.700000X1.700000*%
G04 #@! TD*
G04 #@! TA.AperFunction,ComponentPad*
%ADD13O,1.700000X1.700000*%
G04 #@! TD*
G04 #@! TA.AperFunction,ViaPad*
%ADD14C,0.800000*%
G04 #@! TD*
G04 #@! TA.AperFunction,Conductor*
%ADD15C,0.250000*%
G04 #@! TD*
G04 APERTURE END LIST*
D10*
G04 #@! TO.P,D1,1*
G04 #@! TO.N,GND*
X107950000Y-70612000D03*
D11*
G04 #@! TO.P,D1,2*
G04 #@! TO.N,Net-(D1-Pad2)*
X107950000Y-71882000D03*
G04 #@! TO.P,D1,3*
G04 #@! TO.N,Net-(D1-Pad3)*
X107950000Y-73152000D03*
G04 #@! TO.P,D1,4*
G04 #@! TO.N,Net-(D1-Pad4)*
X107950000Y-74422000D03*
G04 #@! TD*
D12*
G04 #@! TO.P,J2,1*
G04 #@! TO.N,VDD*
X132734000Y-83048100D03*
D13*
G04 #@! TO.P,J2,2*
G04 #@! TO.N,Net-(J2-Pad2)*
X135274000Y-83048100D03*
G04 #@! TO.P,J2,3*
G04 #@! TO.N,Net-(J2-Pad3)*
X137814000Y-83048100D03*
G04 #@! TO.P,J2,4*
G04 #@! TO.N,Net-(J2-Pad4)*
X140354000Y-83048100D03*
G04 #@! TO.P,J2,5*
G04 #@! TO.N,Net-(J2-Pad5)*
X142894000Y-83048100D03*
G04 #@! TO.P,J2,6*
G04 #@! TO.N,Net-(J2-Pad6)*
X145434000Y-83048100D03*
G04 #@! TO.P,J2,7*
G04 #@! TO.N,Net-(J2-Pad7)*
X147974000Y-83048100D03*
G04 #@! TO.P,J2,8*
G04 #@! TO.N,Net-(J2-Pad8)*
X150514000Y-83048100D03*
G04 #@! TO.P,J2,9*
G04 #@! TO.N,Net-(J2-Pad9)*
X153054000Y-83048100D03*
G04 #@! TO.P,J2,10*
G04 #@! TO.N,GND*
X155594000Y-83048100D03*
G04 #@! TD*
D14*
G04 #@! TO.N,Net-(C1-Pad1)*
X120650000Y-73660000D03*
X115570000Y-72390000D03*
G04 #@! TO.N,GND*
X166231700Y-73585700D03*
G04 #@! TO.N,Net-(C3-Pad1)*
X112723100Y-84607500D03*
X118871000Y-82618900D03*
G04 #@! TO.N,Net-(C5-Pad1)*
X177068800Y-72630100D03*
X160807500Y-72491500D03*
G04 #@! TO.N,Net-(J1-Pad2)*
X166886600Y-71674600D03*
X160300700Y-66020000D03*
G04 #@! TO.N,Net-(J1-Pad3)*
X165855800Y-71694900D03*
X160322100Y-67048300D03*
G04 #@! TO.N,Net-(R1-Pad1)*
X116106900Y-64973500D03*
X140347200Y-66520000D03*
G04 #@! TO.N,Net-(R2-Pad1)*
X114808800Y-79165900D03*
X136643100Y-65768600D03*
G04 #@! TD*
D15*
G04 #@! TO.N,Net-(C1-Pad1)*
X115570000Y-72390000D02*
X119380000Y-72390000D01*
X119380000Y-72390000D02*
X120650000Y-73660000D01*
G04 #@! TO.N,GND*
X155594000Y-83048100D02*
X154418700Y-83048100D01*
X154418700Y-83048100D02*
X154418700Y-82680700D01*
X154418700Y-82680700D02*
X153610800Y-81872800D01*
X153610800Y-81872800D02*
X116485600Y-81872800D01*
X116485600Y-81872800D02*
X109175300Y-74562500D01*
X109175300Y-74562500D02*
X109175300Y-70612000D01*
X156181700Y-83048100D02*
X155594000Y-83048100D01*
X107950000Y-70612000D02*
X109175300Y-70612000D01*
X156769300Y-83048100D02*
X166231700Y-73585700D01*
X156181700Y-83048100D02*
X156769300Y-83048100D01*
G04 #@! TO.N,Net-(C3-Pad1)*
X112723100Y-84607500D02*
X114711700Y-82618900D01*
X114711700Y-82618900D02*
X118871000Y-82618900D01*
G04 #@! TO.N,Net-(C5-Pad1)*
X160807500Y-72491500D02*
X176930200Y-72491500D01*
X176930200Y-72491500D02*
X177068800Y-72630100D01*
G04 #@! TO.N,Net-(J1-Pad2)*
X166886600Y-71674600D02*
X161232000Y-66020000D01*
X161232000Y-66020000D02*
X160300700Y-66020000D01*
G04 #@! TO.N,Net-(J1-Pad3)*
X165855800Y-71694900D02*
X161209200Y-67048300D01*
X161209200Y-67048300D02*
X160322100Y-67048300D01*
G04 #@! TO.N,Net-(R1-Pad1)*
X140347200Y-66520000D02*
X138800700Y-64973500D01*
X138800700Y-64973500D02*
X116106900Y-64973500D01*
G04 #@! TO.N,Net-(R2-Pad1)*
X114808800Y-79165900D02*
X123245800Y-79165900D01*
X123245800Y-79165900D02*
X136643100Y-65768600D01*
G04 #@! TD*
M02*
