M48
;DRILL file {KiCad (5.0.2)-1} date 2/28/2019 8:35:44 PM
;FORMAT={-:-/ absolute / inch / decimal}
FMAT,2
INCH,TZ
T1C0.0157
T2C0.0354
T3C0.0394
%
G90
G05
T1
X4.4379Y-3.331
X4.52Y-3.1168
X4.55Y-2.85
X4.5711Y-2.558
X4.68Y-3.2527
X4.75Y-2.9
X5.3796Y-2.5893
X5.5255Y-2.6189
X6.3111Y-2.5992
X6.3119Y-2.6397
X6.331Y-2.854
X6.5298Y-2.8226
X6.5446Y-2.8971
X6.5703Y-2.8218
X6.9712Y-2.8595
T2
X4.25Y-2.78
X4.25Y-2.83
X4.25Y-2.88
X4.25Y-2.93
T3
X5.2257Y-3.2696
X5.3257Y-3.2696
X5.4257Y-3.2696
X5.5257Y-3.2696
X5.6257Y-3.2696
X5.7257Y-3.2696
X5.8257Y-3.2696
X5.9257Y-3.2696
X6.0257Y-3.2696
X6.1257Y-3.2696
T0
M30
